<svg width="92" height="69" viewBox="0 0 92 69" fill="none" xmlns="http://www.w3.org/2000/svg">
<path d="M46.7862 5.41894C45.7156 2.20869 43.0391 -0.466527 39.292 0.0685152C28.3184 2.20869 20.2889 19.3301 15.4712 27.8907C10.6535 36.4514 0.750555 62.1335 0.215258 63.2036C-0.587689 64.8087 1.01821 66.1463 2.35646 65.6112C2.6241 65.8788 3.15938 65.8788 3.42703 65.3437C3.42703 65.0762 33.136 39.1266 44.3773 23.0753C48.1244 17.7249 48.9273 11.8395 46.7862 5.41894Z" fill="white"/>
<path d="M91.4835 46.8847C86.3982 27.0881 40.8979 51.4326 24.5713 65.8787C24.036 66.4138 24.839 67.2163 25.3743 66.9488C25.3743 66.9488 25.6419 66.9488 25.6419 66.6813C25.6419 67.4839 26.1772 68.0189 27.2478 68.0189C48.9274 65.8787 96.3012 66.6813 91.4835 46.8847Z" fill="white"/>
</svg>
