<svg width="65" height="79" viewBox="0 0 65 79" fill="none" xmlns="http://www.w3.org/2000/svg">
<path d="M53.1006 35.0096C55.2191 33.6815 56.6735 31.2935 55.6364 28.6963C52.1874 21.1901 38.4947 18.4084 31.5085 16.4411C24.5223 14.4737 4.35644 11.8387 3.49482 11.6408C2.20239 11.344 1.52182 12.7302 2.1392 13.5978C1.99376 13.8366 2.08704 14.2209 2.51784 14.3199C2.70993 14.2733 26.5193 31.0827 40.0033 36.3569C44.498 38.115 48.8637 37.6659 53.1006 35.0096Z" fill="white"/>
<path d="M31.1168 74.329C44.4449 67.2278 19.0362 38.8003 5.81847 29.595C5.34102 29.3039 4.9047 30.0203 5.19006 30.3581C5.19006 30.3581 5.2367 30.5502 5.42878 30.5036C4.85253 30.6434 4.56165 31.1211 4.74821 31.8898C10.0628 47.083 17.7421 81.238 31.1168 74.329Z" fill="white"/>
</svg>
