<svg width="13" height="12" viewBox="0 0 13 12" fill="none" xmlns="http://www.w3.org/2000/svg">
<path d="M12.5638 4.60776C12.4499 4.28309 12.393 3.98547 12.08 3.95842C11.8809 3.11969 11.6817 3.30909 11.5679 2.82209C11.3971 2.17275 11.1695 2.36214 10.7711 1.73986C10.572 1.44225 10.4297 1.52341 10.2305 1.19874C10.0313 0.928188 9.71832 0.87407 9.57604 0.819958C9.06387 0.657624 9.43377 0.0894496 7.61268 0.0894496C5.30788 0.0894496 5.50706 -0.397554 3.05998 0.901122C2.51935 0.522342 2.29173 0.874066 1.69419 1.30696C1.26737 1.63163 1.06819 2.06453 0.698286 2.82209C0.47065 3.25498 0.584475 4.09371 0.385294 4.25604C-0.0130674 4.58071 0.157631 4.8242 0.072268 5.36532C-0.0130952 5.85232 -0.0699971 6.25817 0.186093 6.60989C0.413728 6.06878 0.442196 6.01466 0.413742 6.77222C0.413742 6.85339 0.385287 7.04278 0.27147 7.12394C0.243015 7.09689 0.242994 7.06984 0.21454 7.01573C-0.582183 7.44862 1.09665 9.28841 1.09665 9.31547C1.26738 9.77542 1.29583 9.23429 1.52347 10.2354C1.66574 10.4518 2.12101 10.8576 2.69009 10.9929C2.88927 11.047 3.51526 11.6964 4.31198 11.1011C4.68189 10.8306 5.1087 11.6422 6.16152 11.534C7.0436 12.3457 8.2387 12.0481 8.95006 11.02C9.12079 10.7765 9.57604 10.9388 10.0029 10.8576C11.0557 10.6682 12.4784 9.58602 12.3646 8.66612C12.1654 7.06983 13.7304 5.90644 12.5638 4.60776ZM10.2305 1.92924C10.3443 2.0104 10.3728 2.14569 10.4866 2.25391C10.4582 2.28096 10.4581 2.30802 10.4297 2.30802C10.3159 2.22686 10.1167 2.0104 10.2305 1.92924ZM9.97441 2.82209C10.2874 2.98442 10.5435 2.95736 10.7427 2.98442C11.0841 3.30909 11.198 3.60671 11.0841 4.0396C10.9134 4.85127 11.0272 4.7701 10.9134 3.57965C10.885 3.3632 10.7427 3.20086 10.6858 3.82314C10.4297 3.74197 10.5435 3.44436 10.4866 3.20086C10.3443 3.09264 10.4297 3.39026 10.3728 3.44437C10.259 3.41731 9.94596 2.82209 9.97441 2.82209ZM10.9703 5.0136C10.9419 4.95949 10.9134 4.90537 10.9703 4.8242C11.0272 4.90537 11.0272 4.95949 10.9703 5.0136ZM10.7996 3.68786C10.8281 3.79608 10.8565 3.90432 10.7996 4.0396C10.7142 3.90432 10.7711 3.79608 10.7996 3.68786ZM10.7996 4.22898C10.7427 4.3372 10.7142 4.22899 10.7711 4.17488C10.7711 4.20193 10.7711 4.20192 10.7996 4.22898ZM10.6289 4.44543C10.572 4.2831 10.4866 3.93137 10.6289 4.01253C10.6858 4.14781 10.6573 4.2831 10.6289 4.44543ZM9.2915 1.33402C9.49068 1.11758 9.54759 2.11863 9.43377 1.98335C9.2915 1.79396 9.43377 1.84808 9.2915 1.36107C9.2915 1.36107 9.2915 1.36108 9.2915 1.33402ZM5.59243 0.819958C5.64934 0.819958 5.70625 0.847007 5.56398 0.847007C5.56398 0.819951 5.56397 0.819958 5.59243 0.819958ZM5.4786 0.847007C5.22251 1.00934 5.1087 0.874063 5.05179 0.847007C5.4786 0.819951 5.36479 0.819951 5.4786 0.847007ZM5.05179 0.684679C5.08024 0.684679 5.79162 0.65762 4.99489 0.765843C4.96644 0.765843 4.93797 0.711735 5.05179 0.684679ZM4.76724 0.955237C4.7957 0.955237 4.7957 0.982292 4.76724 0.955237V0.955237ZM6.50299 0.955237C6.41763 1.0364 5.30789 1.60457 5.27944 1.63163C3.48681 2.25391 5.30788 1.46929 5.4786 1.25284C5.45015 1.00934 4.62498 1.36107 4.45425 1.30696V1.33402C4.31198 1.2258 6.41763 0.711735 6.50299 0.955237ZM3.99899 3.06558C3.91363 2.98441 3.91363 3.03853 3.99899 2.90325C4.11281 2.90325 4.08437 3.06558 4.22664 2.9303C4.79573 2.38919 4.65345 2.65975 4.22664 3.20086C3.94209 3.06558 4.22662 2.98441 3.99899 3.06558ZM4.16971 1.55047C4.22662 1.7128 4.16971 1.95631 3.88516 2.01042C3.82826 1.79397 3.85671 1.55047 4.16971 1.55047ZM4.14126 1.22579C4.22662 1.25285 4.19816 1.22579 4.16971 1.30696C4.02744 1.36107 4.0559 1.30696 4.14126 1.22579ZM3.94209 2.17275C3.91364 2.22686 3.91363 2.22685 3.85672 2.19979C3.91363 2.14568 3.91364 2.14569 3.94209 2.17275ZM4.05588 2.33507C3.99897 2.55152 4.02743 2.49742 3.91361 2.55153C3.79979 2.47036 3.8567 2.28096 4.05588 2.33507ZM4.25509 2.79502C4.08436 2.79502 4.14125 2.79503 4.05588 2.76797C4.02743 2.38919 6.10462 1.79396 4.25509 2.79502ZM4.14126 2.33507C4.19817 2.11863 4.42582 2.03747 4.65345 1.9563C4.79573 2.30803 6.10461 1.52341 5.16561 2.17275C4.68189 2.14569 4.08435 2.60563 4.14126 2.33507ZM4.34043 1.22579C4.31197 1.19874 4.31199 1.17168 4.28353 1.11756C4.45426 1.0364 4.65343 1.14463 4.34043 1.22579ZM4.34043 1.5234C4.51115 1.44223 6.01924 0.982292 4.4827 1.76691C4.25506 1.84808 4.25506 1.73985 4.34043 1.5234ZM3.11691 1.65868C3.40145 1.19873 4.62499 0.46824 3.97054 1.19874C3.54373 1.68575 3.71446 1.68574 3.51528 1.57752C3.34455 1.57752 3.00309 1.84807 3.11691 1.65868ZM3.62907 2.6327C3.60061 2.47036 3.57217 2.52447 3.71444 2.49742C3.7429 2.60564 3.77134 2.57858 3.62907 2.6327ZM3.686 2.76797C3.60063 2.82209 3.60061 2.84914 3.62907 2.76797C3.62907 2.76797 3.65754 2.76797 3.686 2.76797ZM3.686 2.36214C3.65754 2.36214 3.62907 2.36214 3.60062 2.36214C3.60062 2.06453 3.79981 2.17275 3.686 2.36214ZM3.71444 1.9563C3.71444 1.98336 3.71444 1.98336 3.71444 1.9563V1.9563ZM3.54373 2.03747C3.28764 2.09158 3.1169 2.1998 3.60062 1.71279C3.65753 1.79396 3.57218 1.98335 3.54373 2.03747ZM2.83237 2.22686C2.91773 1.9563 3.25918 1.79397 3.40145 1.73986C3.23073 2.03747 2.77546 2.41625 2.83237 2.22686ZM2.74699 2.55153C2.91771 2.30803 3.20226 2.25391 3.45835 2.11863C3.77135 2.57858 2.71855 2.74091 2.94619 2.9303C3.51528 2.76797 3.42989 2.76797 3.4868 2.84914C2.80389 3.14675 2.57626 3.33615 2.74699 2.55153ZM3.45835 2.65975C3.42989 2.74091 3.37299 2.74091 3.28763 2.74091C3.31608 2.65974 3.40144 2.60563 3.45835 2.65975ZM2.71854 3.30909C2.77545 3.17381 3.40145 2.95737 3.686 2.95737C4.14127 3.39026 4.31199 3.1738 2.86081 3.87725C2.66163 3.95842 2.747 3.90432 2.71854 3.30909ZM2.71854 4.0396C2.71854 4.01254 4.19818 3.17381 3.94209 3.52553C3.6291 3.95842 3.48682 4.12076 3.37301 4.41837C3.45837 4.5807 3.65753 4.49954 3.74289 4.39132C3.60062 4.41838 3.42989 4.49954 3.4868 4.3372C3.5437 4.17487 3.97055 3.39025 4.36891 3.33614C4.45427 3.06558 4.82417 3.09264 5.25099 3.06558C5.10872 2.95736 4.93797 3.03853 4.76724 2.98442C5.4217 2.87619 4.90953 2.98442 4.56808 2.98442C4.62499 2.63269 5.67778 1.95629 6.18996 1.65868C7.18587 1.11756 4.25507 2.22685 5.45016 1.65868C5.62088 1.41518 6.36071 1.2258 6.67371 0.928188C6.81598 0.901132 7.1859 1.09051 7.35662 1.0364C7.21435 0.901122 6.70216 0.819951 6.67371 0.711728C6.78753 0.684673 7.4135 0.684683 7.61268 0.738794C7.81186 0.928184 7.89724 0.95524 8.40942 1.27991C8.75087 1.49635 8.60859 1.63163 9.00696 1.98335C9.00696 2.09157 8.95004 2.06452 9.31995 1.98335C9.46222 2.17274 9.83214 3.49848 9.5476 3.17381C8.72242 2.25392 8.06796 0.143568 8.58014 2.36214C8.77932 3.28203 8.21023 1.4693 7.89723 1.27991C7.69805 1.27991 8.06798 1.98335 8.2387 2.71386C8.29561 2.76797 8.26715 2.84914 8.26715 2.84914C8.40942 3.01147 7.35661 1.38813 7.27124 1.41519C7.27124 1.57752 8.72241 3.49848 7.29969 1.73986C7.12897 1.55047 6.90134 1.00935 7.41352 2.03747C8.21024 3.71492 6.78751 1.09052 5.87697 2.09158C5.96234 2.33508 6.24689 1.63162 7.38507 2.74091C8.01107 3.33614 8.12489 3.41731 8.21025 3.74197C8.29562 4.03959 8.43788 4.63482 8.38097 4.98655C8.26716 4.98655 8.0395 3.71493 7.89723 3.3632C7.7265 3.39026 7.78344 3.3632 8.21025 4.93243C8.38098 5.58177 8.35252 6.25816 8.2387 5.90643C8.03952 5.17593 7.84034 3.74198 7.52734 3.71493C7.44198 3.76904 7.47044 4.14781 7.49889 4.20193C7.64117 4.12076 7.32816 2.68681 8.2387 6.33934C8.35252 6.82634 8.40941 5.87939 8.32404 5.39239C8.63704 5.04066 8.26715 4.01254 8.26715 3.76904C8.75087 3.93138 9.43377 6.20404 8.01105 1.79396C7.86878 1.38812 8.26716 1.82102 8.66552 3.33614C8.83624 3.90431 8.80779 3.28204 8.80779 3.22793C8.69397 2.49742 8.43789 1.63163 8.63707 1.98335C10.2874 4.87832 9.51916 2.25391 9.63297 2.4433C10.3159 3.6067 10.202 3.14675 10.4581 3.95842C10.5435 4.20192 10.4012 5.14887 10.5435 5.17593C10.6573 5.0677 10.6289 4.22898 10.7711 4.25604C10.9703 4.25604 10.8565 5.01359 10.8565 5.85232C10.9419 5.71704 10.9419 5.55471 10.9703 5.17593C10.9988 5.09476 11.0557 5.14888 11.1126 5.14888C11.2549 5.04065 11.3402 4.85126 11.5394 4.77009C11.9093 4.85126 11.5963 5.52765 11.9093 5.85232C12.0516 6.01465 11.6817 7.28629 11.454 7.69212C11.2833 7.55684 11.3687 7.3404 10.3728 5.87939C10.0882 5.44649 10.3159 3.47142 10.0598 3.47142C9.97443 3.63375 10.1167 4.06665 10.1167 4.5266C10.1451 5.71705 10.1736 5.44649 9.83214 5.23004C9.80369 4.98654 9.71831 4.01254 9.60449 4.39132C9.60449 4.41838 9.34843 5.87938 9.63297 4.68893C9.68988 4.47248 9.77523 5.0136 9.68987 6.20406C9.83214 6.28522 9.83215 6.28521 9.80369 6.39343C9.71833 6.36638 9.74678 6.36639 9.66142 6.33934C9.57606 6.63695 9.4907 6.55578 9.4907 6.77222C9.4907 7.25922 9.51915 7.151 9.37688 7.3945C8.40943 7.47567 9.03541 7.52979 8.72241 4.66188C8.69396 4.49954 8.72242 4.39131 8.55169 4.41837C8.55169 4.49954 8.60862 4.47249 8.63707 4.5266C8.8078 5.23005 8.55171 5.17593 8.63707 5.28416C8.77934 5.5006 8.75086 6.55578 8.75086 7.23217C8.75086 7.3404 8.72241 7.42156 8.60859 7.3945C8.58013 7.3945 8.15334 7.31333 8.09643 7.25922C8.03952 6.98866 8.09644 6.09583 7.92571 5.87939C7.81189 5.98761 7.95415 6.12289 7.9826 6.60989C7.9826 6.71812 7.9257 6.74517 7.95416 6.77222C8.01107 6.93456 8.09641 7.23216 7.89723 7.20511C7.29969 7.17805 7.86879 6.96162 6.84443 7.42157C6.53143 7.23218 5.90544 7.77328 5.25099 7.98973C4.93799 7.71917 5.90543 7.50273 6.55989 7.04278C6.47452 6.93456 6.55987 6.93456 6.04769 7.17806C5.76315 6.88044 6.78751 6.77223 6.87288 6.47461C7.38506 6.12289 7.47043 5.79822 7.66961 5.79822C7.81189 5.28416 7.8688 5.23005 7.64117 4.93243C7.52735 4.41838 7.18588 2.95736 7.12897 3.47142C7.24279 3.6067 7.47042 4.41837 7.44196 4.60776C7.07206 4.36426 7.1859 3.39025 6.64526 3.14675C6.5599 3.25497 6.6737 3.09263 6.84443 3.4173C6.92979 3.57964 7.18588 4.14782 7.12897 4.25604C7.10052 4.25604 7.18588 4.33721 6.41761 3.90432C6.3607 3.87726 6.44608 3.82315 6.50299 3.76904C7.1859 3.06559 4.90952 3.82314 4.7388 3.95842C4.65343 4.03958 4.56806 3.95843 5.05179 3.57965C5.67778 3.09264 5.64933 2.95736 4.4827 3.87725C4.4827 3.95842 4.48271 4.01254 4.45425 4.12076C2.54781 5.04066 3.37298 4.55365 3.34452 3.74197C3.03153 4.12076 3.23072 4.52659 3.00308 4.77009C3.08845 4.85126 3.05999 5.0677 3.03153 5.17593C2.97462 5.33826 2.83237 5.14888 2.80392 5.12183C2.12101 4.98655 2.34863 5.23005 2.71854 4.0396ZM8.18177 3.22793C7.78341 2.98442 7.44196 2.14569 7.58424 2.30802C7.81187 2.57858 8.0395 2.8762 8.18177 3.22793ZM11.3687 7.90857C11.2833 8.17912 11.1411 8.39557 11.2264 7.69212C11.3118 7.74623 11.2549 7.66506 11.3687 7.90857ZM10.6289 7.34039C10.6289 7.31333 10.6289 6.69105 10.1736 6.9075C10.0598 6.82633 10.1451 6.71812 9.88904 6.47461C9.88904 5.85233 9.88905 5.77116 9.83214 5.60883C9.57605 4.85127 10.7142 6.52872 11.0841 7.31334C10.5435 8.77435 11.0841 6.98866 10.6289 7.34039ZM10.6004 7.71917C10.5719 7.52978 10.7996 7.25922 10.6858 7.80034C10.6289 7.80034 10.6004 7.77328 10.6004 7.71917ZM10.6573 8.01678C10.4012 9.31545 10.515 9.07195 10.1451 8.82845C10.2589 8.34145 10.4581 7.55683 10.6573 8.01678ZM10.1167 8.39557C10.1167 8.72024 9.97443 8.77434 9.91752 8.61201C9.94597 8.53084 10.0313 8.47673 10.1167 8.39557ZM9.88904 7.8815C9.83213 7.82739 9.88906 7.8274 9.91752 7.77329C9.97443 7.85445 9.94594 7.8815 9.88904 7.8815ZM11.0557 7.66506C11.1126 7.77328 11.0557 8.17913 11.0272 8.23324C10.7996 8.17913 10.9703 7.90856 11.0557 7.66506ZM8.72241 8.58496C8.60859 6.85339 9.8606 8.99079 9.26305 8.39557C9.2346 9.18018 9.34841 9.28841 8.72241 8.58496ZM9.23461 9.26135C9.12079 9.64013 8.83625 9.04491 8.77934 8.85552C8.86471 8.85552 8.77934 8.77435 9.23461 9.26135ZM9.37688 8.88257C9.63297 8.85551 9.71832 8.8014 9.68987 8.93668C9.63296 9.45074 9.63295 9.36957 9.60449 9.42368C9.3484 9.31546 9.31997 9.15312 9.37688 8.88257ZM9.43377 8.20617C9.20614 7.96267 9.03543 7.88151 9.4907 7.8274C10.0598 7.74623 9.66141 8.44967 9.43377 8.20617ZM8.4948 8.12501C8.21025 8.20618 8.3525 8.01678 8.18177 7.93562C8.12486 8.17912 8.49478 8.0709 8.40942 8.85552C8.32406 8.85552 7.92571 8.0709 8.06798 7.8274C8.23871 7.85446 8.35252 7.90857 8.52325 7.90857C8.72243 7.90857 8.69396 8.17912 8.58014 8.3144C8.55169 8.26029 8.52325 8.17912 8.4948 8.12501ZM8.55169 8.90963C8.52324 8.7473 8.52324 8.7473 8.55169 8.63907C8.58015 8.7473 8.58015 8.7473 8.55169 8.90963ZM5.82008 8.20617C5.47862 8.3144 5.19409 8.69317 5.22254 8.28734C5.45018 8.15206 6.3038 7.66506 6.55989 7.66506C5.87698 8.28734 6.10462 8.34145 5.82008 8.20617ZM6.16152 9.18019C5.90543 9.26136 5.73471 9.15312 6.10462 9.01784C6.13308 9.07196 6.16152 9.12608 6.16152 9.18019ZM5.79163 8.42262C5.76318 8.44967 5.70626 8.47674 5.67781 8.5038C5.67781 8.44968 5.67781 8.44967 5.79163 8.42262ZM5.36481 8.72024C5.36481 8.63907 5.4217 8.61201 5.4786 8.61201C5.50706 8.63906 5.47863 8.66613 5.36481 8.72024ZM6.41761 8.66612C6.47452 8.58496 6.50296 8.47674 6.61678 8.36852C6.78751 9.34252 6.3607 9.23429 6.27534 9.09901C6.13307 8.88256 6.27534 8.88257 6.41761 8.66612ZM6.75905 9.61307C6.7306 9.88363 6.58835 9.72129 6.64526 9.64012C6.64526 9.61307 6.67369 9.58602 6.75905 9.61307ZM6.7306 8.26029C6.78751 8.28734 6.75907 8.23323 6.84443 8.44968C6.84443 9.80247 6.58833 8.82846 6.7306 8.26029ZM6.75905 9.85658C6.84442 9.69425 6.81597 9.74835 6.87288 9.55896C7.64115 9.2884 7.84034 9.20724 7.66961 9.9648C7.04362 10.2083 6.1046 10.0189 6.75905 9.85658ZM7.64117 10.3706C7.49889 10.5871 6.67372 10.5059 6.50299 10.4518C6.41763 10.1001 6.70214 10.1812 6.90132 10.1812C7.66959 10.1542 7.64117 10.0189 7.64117 10.3706ZM7.21435 8.07089C7.04362 8.23323 7.38507 9.42368 6.95825 8.39557C6.73062 7.8274 7.61268 7.55683 7.89723 7.74622C7.92568 7.90856 7.89723 7.63801 7.89723 8.72024C7.89723 9.61308 7.27126 8.17912 7.21435 8.07089ZM7.49889 8.96373C7.41353 9.12606 7.21432 9.07195 7.32814 8.55789C7.38505 8.72023 7.44199 8.82845 7.49889 8.96373ZM6.90132 8.69317C6.98669 8.72023 7.01517 8.77435 7.07208 9.07196C6.8729 9.09902 6.90132 9.15312 6.90132 8.69317ZM7.75496 10.1001C7.98259 10.0189 8.09643 10.0189 7.81189 9.99186C7.72652 9.88364 7.84035 9.77541 7.92571 9.69424C8.06798 9.36957 7.78342 9.15312 8.43787 9.7754C8.52323 10.2354 8.38097 10.1542 8.09643 10.2624C7.69807 10.3977 7.75496 10.4247 7.75496 10.1001ZM8.46632 9.61307C8.29559 9.53191 8.21025 9.39664 8.06798 9.31547C8.06798 9.26136 8.06798 9.2343 8.06798 9.18019C7.95416 9.01785 7.9826 9.09902 7.9826 8.58496C7.9826 8.26029 8.21025 8.96373 8.35253 9.23429C8.4948 9.26134 8.55168 9.23429 8.46632 9.61307ZM5.22254 8.8014C5.19409 8.77435 5.19409 8.77435 5.22254 8.8014V8.8014ZM4.59652 8.58496C4.53962 8.50379 4.56807 8.42262 4.59652 8.34145C4.65343 8.42262 4.71034 8.53085 4.59652 8.58496ZM4.65345 8.93668C4.65345 8.96374 4.65345 8.96374 4.65345 8.93668V8.93668ZM7.12897 5.17593C7.49888 5.68999 6.75905 5.9876 6.18996 6.31227C6.13306 6.33933 6.13308 6.31227 6.07617 6.25816C5.22254 7.12394 5.33633 6.71812 4.62497 6.47461C4.56806 5.9335 4.51116 6.06878 5.45016 5.74411C5.56397 5.79822 5.53553 5.79821 5.56398 5.71704C5.6778 5.60882 6.18996 5.5006 5.90542 5.41943C5.19406 5.71705 5.56397 5.7441 4.34043 5.17593C4.14125 4.77009 3.94207 5.09476 3.88516 4.8242C3.85671 4.49954 3.71445 4.63482 4.53963 4.25604C4.82417 4.44543 6.21843 3.82314 7.12897 5.17593ZM5.53553 3.90432C5.82008 3.74198 6.84444 3.55259 6.10462 3.98548C5.9339 3.95843 5.73471 3.93138 5.53553 3.90432ZM6.50299 6.25816C6.44608 6.39343 6.16151 6.44755 6.18996 6.44755C6.18996 6.36638 6.47454 6.28521 6.50299 6.25816ZM6.07617 6.96161C5.82008 7.06984 5.70625 7.25922 5.45016 6.9075C5.53552 6.79928 5.56397 6.77222 5.7347 6.71811C5.76315 6.77222 5.79162 6.79927 5.84853 6.85339C5.90543 6.88044 5.99081 6.88045 6.07617 6.96161ZM3.88516 6.04171C3.94207 6.01466 4.22662 6.01466 4.28353 6.01466C4.45426 6.01466 4.59652 5.96055 4.4827 6.4205C3.8567 6.4205 3.7998 6.52872 3.88516 6.04171ZM4.51118 5.87939C3.82828 5.90644 3.88519 6.04171 3.94209 5.23004C4.08437 5.06771 4.05591 5.36532 4.51118 5.44648C4.99491 5.55471 5.13717 5.58178 5.25099 5.66294C5.13717 5.74411 4.82418 5.82527 4.65345 5.82527C4.59655 5.77116 4.625 5.2571 4.51118 5.87939ZM4.59652 8.15206C4.59652 8.04383 4.56808 8.04384 4.6819 8.07089C4.65345 8.09795 4.65343 8.09795 4.59652 8.15206ZM4.59652 6.69106C4.79571 6.63695 5.05179 6.79928 5.05179 7.01573C4.71034 7.42157 5.02334 7.09689 5.16561 7.09689C5.33634 7.25923 5.4217 7.31334 5.33633 7.36745C4.36888 8.01679 4.56807 8.09796 4.59652 6.69106ZM4.88107 8.36852C4.88107 8.42263 4.82418 8.47674 4.79573 8.36852C4.79573 8.34146 4.85261 8.31441 4.88107 8.36852ZM4.7388 8.20617C4.76725 8.12501 4.99489 7.93562 4.99489 8.07089C5.02335 8.20617 4.85261 8.23323 4.7388 8.20617ZM5.02334 8.44968C5.13716 8.58496 4.96645 8.90962 4.82417 8.61201C4.88108 8.53084 4.93798 8.47674 5.02334 8.44968ZM4.99489 7.8274C4.71035 8.0709 4.59655 7.82739 5.50709 7.3945C5.99081 7.47567 5.16562 7.69212 4.99489 7.8274ZM3.37301 8.63907C3.40146 9.28841 3.20225 8.82845 2.77544 8.15206C2.83234 7.90856 2.77545 7.69212 2.86081 7.44862C3.37299 7.17806 2.77544 7.151 2.91771 6.31227C3.00307 5.71704 2.88928 5.66294 3.08846 5.60883C3.48682 5.90644 3.4868 5.01359 3.77134 5.9876C3.28761 10.2624 3.28761 7.3945 2.91771 7.66506C2.91771 7.80034 2.97464 7.88151 3.37301 8.63907ZM3.00308 5.33827C3.05999 4.7701 2.97464 4.95948 3.40145 4.77009C3.85672 4.5807 3.77134 4.58071 3.77134 4.98655C3.1738 5.23005 3.17381 5.5006 3.00308 5.33827ZM3.77134 5.66294C3.65752 5.60883 3.82826 5.55471 3.57217 5.41943C3.54372 5.2571 3.91361 5.06772 3.77134 5.66294ZM1.09665 3.25497C1.58038 1.90219 2.03562 1.68574 2.49089 1.36107C2.77544 1.14463 1.69418 2.71386 1.46654 3.25497C1.40963 3.3632 0.925928 3.68787 1.09665 3.25497ZM1.86491 4.0937C1.808 3.95842 1.8649 3.82314 1.89336 3.68786C1.97872 3.85019 1.89336 3.95842 1.86491 4.0937ZM1.46654 4.58071C1.40963 4.47249 1.46656 4.28309 1.52347 4.14781C1.55192 4.25603 1.58036 4.5266 1.46654 4.58071ZM1.40965 5.0136C1.38119 4.79715 1.38117 4.77009 1.49499 4.68893C1.49499 4.8242 1.49501 4.82421 1.40965 5.0136ZM1.29582 4.12076C1.35273 4.22898 1.12508 5.12182 1.06817 4.8242C1.03972 4.63481 1.15354 4.58071 1.03972 4.39132C0.954361 4.22898 1.12509 4.14782 1.29582 4.12076ZM1.72264 5.90643C1.69418 6.28521 1.66573 6.2311 1.43809 6.39343C1.32428 6.79927 1.35274 6.74516 1.26737 6.71811C1.21046 5.2571 0.555993 5.23004 1.21044 5.28416C1.18199 5.0136 1.15356 5.06771 1.23893 5.0136C1.29583 5.17593 1.26737 5.2571 1.43809 5.36532C1.89336 5.60882 1.72264 5.66293 1.72264 5.90643ZM1.77953 6.09583C1.77953 5.68999 2.06408 5.60882 2.20635 5.71704C2.09253 6.09582 1.66573 6.04172 2.86081 5.66294C2.91772 5.74411 2.83237 6.55577 2.80392 6.66399C1.80801 6.12288 1.77953 6.31227 1.77953 6.09583ZM2.46244 10.1001C2.20635 9.85657 1.92182 9.01785 2.26328 9.12607C2.34864 9.2343 2.29172 9.34251 2.29172 9.42368C2.32018 9.61307 2.49091 9.64012 2.57627 9.7754C2.54781 9.82951 2.71853 10.3436 2.46244 10.1001ZM4.7388 10.4518C4.28353 10.3977 4.56808 10.1271 4.25509 10.073C4.02745 10.1271 3.88517 10.4248 3.85672 10.6683C3.68599 10.6683 3.54373 10.7224 3.40145 10.56C3.65754 10.3165 3.4868 10.533 3.34452 10.2354C3.28761 10.1001 3.14534 10.0189 3.05998 9.74835C2.94616 9.34252 2.66165 9.34252 2.51937 9.26135C2.32019 9.01785 2.40555 9.09901 2.12101 8.96373C2.09255 8.85551 2.06409 8.82846 2.14945 8.8014C2.49091 8.63907 2.46244 8.66612 2.49089 8.69317C2.5478 8.63906 2.40553 8.47674 2.34862 8.44968C2.14944 8.23323 1.89336 8.26029 1.86491 8.12501C2.434 7.58389 1.43809 6.44756 2.71854 7.42157C2.77545 7.52979 2.6901 7.96267 2.66165 8.01678C2.40556 7.8815 2.46247 7.8274 2.3771 7.90857C2.57628 7.96268 2.46245 7.90857 2.57627 8.04384C2.747 8.28735 2.6901 8.12501 2.66165 8.39557C2.63319 8.99079 2.66162 8.90963 2.77544 8.39557C2.91771 8.50379 3.05999 8.72024 3.28763 9.18019C3.28763 9.26136 3.28763 9.36957 3.28763 9.50484C3.60063 9.09901 4.14127 10.6953 3.40145 9.20724C3.40145 9.18018 3.40145 8.72024 3.54373 8.93668C3.79981 9.28841 3.91362 9.50485 4.16971 9.69424C4.45425 9.91068 3.82828 9.26135 3.51528 8.61201C3.60064 8.39556 3.57217 7.96267 3.71444 8.28734C4.68189 10.533 5.05179 10.1001 4.7388 10.4518ZM6.24689 11.02C6.27535 11.3176 6.0477 11.1282 5.59243 10.8847C4.59652 10.3436 5.05179 10.6412 5.16561 9.58603C5.08025 9.64014 5.08025 9.69424 4.88107 10.046C4.82416 9.80246 4.85263 9.82953 4.82417 9.99186C4.62499 10.073 3.00308 7.34039 4.02744 6.58283C4.68189 6.47461 4.53961 6.58283 4.4827 8.26029C4.4827 8.77435 4.22662 7.66507 4.16971 7.96268C4.08435 8.34146 4.51115 8.77435 4.4827 9.20724C4.45425 9.50485 4.56806 9.20724 4.62497 9.34252C4.7957 9.69424 4.76726 9.42369 4.85262 9.39663C4.99489 9.42369 5.0518 9.77541 5.13717 9.55896C5.13717 9.61307 5.84854 9.7213 6.36072 9.66719C6.5599 9.77541 6.50297 9.9648 6.44606 10.1001C6.21843 10.1271 5.82006 10.1271 5.59243 10.1271C5.19407 10.1271 4.93797 10.2083 5.33633 10.2083C6.50296 10.2083 6.41762 10.1271 6.38917 10.4518C6.27535 10.4789 6.3607 10.5059 6.01924 10.4247C5.99079 10.3977 5.99079 10.3706 6.01924 10.3436C4.99489 10.4518 6.81596 10.6141 6.90132 10.6412C6.90132 10.7494 6.38917 10.7765 6.24689 11.02ZM6.78753 11.2094C6.16154 11.2364 7.92569 10.6953 8.15332 10.7224C8.18178 10.8035 7.2428 11.1823 6.78753 11.2094ZM7.10053 11.3176C7.27125 11.2094 7.10053 11.3446 8.06798 10.9388C8.97852 10.533 7.75498 11.5611 7.10053 11.3176ZM11.2264 9.34252C11.6817 9.34252 10.2305 10.2895 9.40532 10.4247C9.26305 10.3977 8.9785 10.1001 9.2915 10.4518C9.23459 10.5059 9.34842 10.4518 8.69396 10.6953C8.35251 10.8306 8.40941 10.7765 8.46632 10.6412C8.29559 10.4518 6.61679 11.047 6.44606 11.02C6.61679 10.8847 7.41351 10.6141 7.58424 10.6141C8.09642 10.56 9.20614 10.073 8.69396 10.2083C8.58015 10.1271 8.55169 9.74836 8.83624 10.073C8.83624 10.2083 8.8078 10.1813 8.92161 10.1271C9.57607 10.56 8.83624 9.93775 8.80779 9.93775C8.49479 9.74836 8.66551 9.4778 8.69396 8.9908C8.80778 9.01785 8.77934 9.07196 8.95006 9.39663C9.14924 9.74836 9.34842 9.45074 9.37688 9.39663C9.63297 9.4778 9.63296 9.66719 9.68987 9.85658C9.80369 9.77542 9.6614 9.72129 9.88904 9.55896C9.88904 9.45074 9.91751 9.47779 9.80369 9.50484C9.74678 9.45073 9.86059 8.82845 9.86059 8.74729C10.1736 8.74729 9.97441 9.09902 10.0029 9.20724C10.0598 9.20724 10.0598 9.18018 10.1167 8.96373C10.2305 8.88256 10.7711 9.50485 10.9988 9.2884C10.828 9.2884 10.6858 9.20723 10.5435 9.09901C10.828 8.125 10.7996 8.15206 10.9988 8.39557C10.9134 8.5579 10.885 8.50378 11.0841 8.69317C11.3118 8.55789 11.2549 8.77434 11.5394 8.82845C11.6248 8.93667 11.2264 9.20724 11.2264 9.34252ZM11.5679 8.72024C11.2833 8.66613 11.3402 8.47673 11.5679 8.53084C11.6248 8.58496 11.5963 8.63907 11.5679 8.72024ZM11.7101 8.66612C11.6532 8.61201 11.6248 8.50379 11.7101 8.47673C11.7386 8.53084 11.7386 8.58496 11.7101 8.66612ZM11.9947 6.82634C11.9947 6.93456 11.7955 7.42156 11.7386 7.50273C11.6532 8.17912 12.0231 5.23005 11.9947 6.82634ZM9.12078 4.90537C9.09233 4.63481 9.20616 4.68893 9.20616 4.74304C9.29152 4.95949 9.34842 8.31439 9.12078 4.90537ZM3.77134 4.41837C3.79979 4.41837 3.79979 4.41837 3.77134 4.41837V4.41837ZM3.85672 4.39132C3.82826 4.41838 3.82828 4.41837 3.79982 4.41837C3.82828 4.41837 3.82826 4.39132 3.85672 4.39132ZM8.97851 2.1457C8.97851 2.1457 8.95005 2.17275 8.97851 2.1457V2.1457ZM4.19816 4.17488C4.1697 4.17488 4.1697 4.17488 4.19816 4.17488C4.19816 4.14782 4.19816 4.14782 4.19816 4.17488ZM3.99899 4.28309C3.99899 4.31015 3.99899 4.31015 3.99899 4.28309C4.02744 4.28309 4.02744 4.28309 3.99899 4.28309ZM3.88516 4.39132C3.85671 4.39132 3.85671 4.39132 3.88516 4.39132C3.88516 4.36426 3.88516 4.36426 3.88516 4.39132ZM2.88926 4.93243C2.86081 4.95949 2.86081 4.95949 2.88926 4.93243V4.93243ZM3.82827 9.85658C3.77136 9.80247 3.88516 9.91069 3.91361 9.93775C3.94207 9.9648 3.91363 9.93775 3.82827 9.85658ZM10.9988 9.2884C11.0272 9.2884 11.0272 9.2884 10.9988 9.2884V9.2884ZM6.07617 10.3436C6.07617 10.3165 6.10463 10.3165 6.07617 10.3436V10.3436ZM1.21044 5.28416C1.21044 5.28416 1.21044 5.31121 1.21044 5.28416V5.28416ZM9.2915 8.39557C9.26305 8.36851 9.26305 8.36851 9.2915 8.39557V8.39557Z" fill="white"/>
</svg>
