<svg width="17" height="16" viewBox="0 0 17 16" fill="none" xmlns="http://www.w3.org/2000/svg">
<path d="M16.4295 6.14368C16.2807 5.71079 16.2063 5.31396 15.797 5.27789C15.5365 4.15959 15.276 4.41212 15.1272 3.76279C14.9039 2.897 14.6063 3.14952 14.0854 2.31981C13.8249 1.923 13.6388 2.03122 13.3784 1.59833C13.1179 1.23758 12.7086 1.16543 12.5225 1.09328C11.8527 0.876831 12.3365 0.119266 9.95505 0.119266C6.94107 0.119266 7.20154 -0.530072 4.00151 1.2015C3.29453 0.696455 2.99688 1.16542 2.21548 1.74261C1.65733 2.1755 1.39687 2.75271 0.913143 3.76279C0.615466 4.33998 0.764313 5.45828 0.503846 5.67472C-0.0170882 6.10761 0.206133 6.43227 0.0945043 7.15376C-0.0171245 7.8031 -0.0915346 8.34423 0.243352 8.81319C0.541029 8.09171 0.578256 8.01955 0.541047 9.02963C0.541047 9.13785 0.503837 9.39037 0.354999 9.49859C0.317789 9.46252 0.317762 9.42646 0.280552 9.35431C-0.761317 9.9315 1.43409 12.3845 1.43409 12.4206C1.65734 13.0339 1.69455 12.3124 1.99223 13.6471C2.17828 13.9357 2.77362 14.4768 3.51781 14.6572C3.77828 14.7294 4.59687 15.5952 5.63874 14.8015C6.12247 14.4408 6.68061 15.523 8.05737 15.3787C9.21087 16.4609 10.7737 16.0641 11.7039 14.6933C11.9272 14.3686 12.5225 14.5851 13.0807 14.4768C14.4574 14.2243 16.3179 12.7814 16.1691 11.5548C15.9086 9.42645 17.9551 7.87525 16.4295 6.14368ZM13.3784 2.57232C13.5272 2.68054 13.5644 2.86091 13.7133 3.00521C13.676 3.04129 13.676 3.07737 13.6388 3.07737C13.49 2.96914 13.2295 2.68054 13.3784 2.57232ZM13.0435 3.76279C13.4528 3.97923 13.7876 3.94315 14.0481 3.97922C14.4946 4.41212 14.6435 4.80894 14.4946 5.38613C14.2714 6.46836 14.4202 6.36013 14.2714 4.77286C14.2342 4.48427 14.0481 4.26781 13.9737 5.09752C13.6388 4.9893 13.7877 4.59248 13.7133 4.26781C13.5272 4.12352 13.6388 4.52034 13.5644 4.59249C13.4156 4.55642 13.0063 3.76279 13.0435 3.76279ZM14.3458 6.6848C14.3086 6.61265 14.2714 6.5405 14.3458 6.43227C14.4202 6.5405 14.4202 6.61265 14.3458 6.6848ZM14.1226 4.91715C14.1598 5.06144 14.197 5.20576 14.1226 5.38613C14.0109 5.20576 14.0853 5.06144 14.1226 4.91715ZM14.1226 5.63863C14.0481 5.78293 14.0109 5.63865 14.0854 5.5665C14.0854 5.60258 14.0853 5.60256 14.1226 5.63863ZM13.8993 5.92725C13.8249 5.7108 13.7133 5.24182 13.8993 5.35004C13.9737 5.53041 13.9365 5.7108 13.8993 5.92725ZM12.1504 1.7787C12.4109 1.4901 12.4853 2.82484 12.3365 2.64447C12.1504 2.39195 12.3365 2.4641 12.1504 1.81476C12.1504 1.81476 12.1504 1.81477 12.1504 1.7787ZM7.31318 1.09328C7.3876 1.09328 7.46202 1.12934 7.27598 1.12934C7.27598 1.09327 7.27597 1.09328 7.31318 1.09328ZM7.16433 1.12934C6.82944 1.34579 6.6806 1.16542 6.60618 1.12934C7.16433 1.09327 7.01549 1.09327 7.16433 1.12934ZM6.60618 0.912906C6.64339 0.912906 7.57365 0.876827 6.53178 1.02112C6.49457 1.02112 6.45735 0.94898 6.60618 0.912906ZM6.23409 1.27365C6.2713 1.27365 6.2713 1.30972 6.23409 1.27365V1.27365ZM8.50391 1.27365C8.39228 1.38187 6.94109 2.13943 6.90388 2.17551C4.55967 3.00522 6.94107 1.95905 7.16433 1.67046C7.12712 1.34579 6.04805 1.81476 5.82479 1.74261V1.7787C5.63874 1.6344 8.39228 0.94898 8.50391 1.27365ZM5.22945 4.08744C5.11782 3.97922 5.11782 4.05138 5.22945 3.871C5.37829 3.871 5.34109 4.08744 5.52714 3.90707C6.27133 3.18558 6.08529 3.54633 5.52714 4.26781C5.15505 4.08744 5.52712 3.97922 5.22945 4.08744ZM5.4527 2.06729C5.52711 2.28373 5.4527 2.60841 5.0806 2.68056C5.00618 2.39196 5.04339 2.06729 5.4527 2.06729ZM5.4155 1.63439C5.52712 1.67047 5.48991 1.63439 5.4527 1.74261C5.26665 1.81476 5.30387 1.74262 5.4155 1.63439ZM5.15505 2.89699C5.11784 2.96914 5.11782 2.96913 5.0434 2.93306C5.11782 2.86091 5.11784 2.86092 5.15505 2.89699ZM5.30385 3.11343C5.22943 3.40203 5.26664 3.32989 5.1178 3.40204C4.96896 3.29382 5.04338 3.04128 5.30385 3.11343ZM5.56434 3.7267C5.34108 3.7267 5.41548 3.72671 5.30385 3.69063C5.26664 3.18559 7.98297 2.39195 5.56434 3.7267ZM5.4155 3.11343C5.48991 2.82484 5.78761 2.71663 6.08529 2.6084C6.27133 3.07737 7.98295 2.03121 6.75503 2.89699C6.12247 2.86092 5.34108 3.47417 5.4155 3.11343ZM5.67594 1.63439C5.63873 1.59832 5.63875 1.56223 5.60154 1.49009C5.8248 1.38186 6.08525 1.52617 5.67594 1.63439ZM5.67594 2.0312C5.8992 1.92298 7.87131 1.30972 5.86199 2.35588C5.56432 2.4641 5.56432 2.3198 5.67594 2.0312ZM4.07596 2.21157C4.44805 1.59831 6.04807 0.62432 5.19225 1.59833C4.6341 2.24766 4.85737 2.24765 4.5969 2.10335C4.37364 2.10335 3.92712 2.46409 4.07596 2.21157ZM4.7457 3.51026C4.70849 3.29382 4.6713 3.36596 4.85735 3.32989C4.89456 3.47419 4.93175 3.43811 4.7457 3.51026ZM4.82015 3.69063C4.70852 3.76278 4.70849 3.79886 4.7457 3.69063C4.7457 3.69063 4.78294 3.69063 4.82015 3.69063ZM4.82015 3.14952C4.78294 3.14952 4.74571 3.14952 4.7085 3.14952C4.7085 2.7527 4.96899 2.897 4.82015 3.14952ZM4.85735 2.6084C4.85735 2.64448 4.85735 2.64448 4.85735 2.6084V2.6084ZM4.6341 2.71662C4.29922 2.78877 4.07594 2.93306 4.7085 2.28373C4.78292 2.39195 4.67131 2.64447 4.6341 2.71662ZM3.70386 2.96915C3.81549 2.6084 4.26201 2.39196 4.44805 2.31981C4.2248 2.71663 3.62944 3.22167 3.70386 2.96915ZM3.59222 3.40204C3.81547 3.07737 4.18757 3.00521 4.52246 2.82484C4.93176 3.4381 3.55503 3.65455 3.85271 3.90707C4.5969 3.69062 4.48524 3.69063 4.55966 3.79885C3.66663 4.19567 3.36896 4.4482 3.59222 3.40204ZM4.52246 3.54633C4.48525 3.65455 4.41084 3.65455 4.29921 3.65455C4.33642 3.54632 4.44804 3.47418 4.52246 3.54633ZM3.55502 4.41212C3.62943 4.23175 4.44805 3.94316 4.82015 3.94316C5.4155 4.52035 5.63875 4.23174 3.74106 5.16967C3.4806 5.27789 3.59222 5.20575 3.55502 4.41212ZM3.55502 5.38613C3.55502 5.35006 5.48993 4.23174 5.15505 4.70071C4.74574 5.2779 4.55969 5.49434 4.41085 5.89116C4.52248 6.1076 4.78292 5.99939 4.89455 5.85509C4.7085 5.89117 4.48524 5.99939 4.55966 5.78294C4.63408 5.56649 5.19226 4.52033 5.71319 4.44819C5.82482 4.08744 6.30853 4.12352 6.86668 4.08744C6.68063 3.94314 6.45735 4.05137 6.23409 3.97922C7.08991 3.83493 6.42015 3.97922 5.97364 3.97922C6.04806 3.51026 7.4248 2.60839 8.09457 2.21157C9.3969 1.49009 5.56432 2.96913 7.12713 2.21157C7.35039 1.8869 8.31785 1.6344 8.72716 1.23758C8.91321 1.20151 9.39694 1.45402 9.6202 1.38187C9.43415 1.2015 8.76437 1.09327 8.72716 0.948971C8.876 0.912897 9.69458 0.91291 9.95505 0.985059C10.2155 1.23758 10.3272 1.27365 10.9969 1.70655C11.4435 1.99514 11.2574 2.1755 11.7783 2.64447C11.7783 2.78877 11.7039 2.75269 12.1876 2.64447C12.3737 2.89699 12.8574 4.66464 12.4853 4.23175C11.4062 3.00522 10.5504 0.191424 11.2202 3.14952C11.4807 4.37605 10.7365 1.95907 10.3271 1.70655C10.0667 1.70655 10.5504 2.64447 10.7737 3.61848C10.8481 3.69063 10.8109 3.79885 10.8109 3.79885C10.9969 4.0153 9.62018 1.85084 9.50855 1.88692C9.50855 2.10336 11.4062 4.66464 9.54575 2.31981C9.32249 2.06729 9.02483 1.3458 9.6946 2.71662C10.7365 4.95323 8.87598 1.45402 7.68527 2.78878C7.7969 3.11344 8.16901 2.1755 9.6574 3.65455C10.476 4.44818 10.6249 4.55641 10.7365 4.9893C10.8481 5.38612 11.0342 6.17977 10.9597 6.64873C10.8109 6.64873 10.5132 4.95324 10.3271 4.48427C10.1039 4.52035 10.1783 4.48427 10.7365 6.57658C10.9597 7.44236 10.9225 8.34421 10.7737 7.87525C10.5132 6.90124 10.2528 4.98931 9.84345 4.95323C9.73182 5.02538 9.76904 5.53042 9.80625 5.60257C9.99229 5.49435 9.58298 3.58241 10.7737 8.45245C10.9225 9.10179 10.9969 7.83918 10.8853 7.18985C11.2946 6.72088 10.8109 5.35006 10.8109 5.02539C11.4435 5.24183 12.3365 8.27206 10.476 2.39194C10.2899 1.85083 10.8109 2.42802 11.3318 4.44819C11.5551 5.20575 11.5179 4.37605 11.5179 4.3039C11.369 3.32989 11.0342 2.1755 11.2946 2.64447C13.4528 6.50442 12.4481 3.00522 12.597 3.25774C13.49 4.80893 13.3411 4.19566 13.676 5.27789C13.7876 5.60256 13.6016 6.86516 13.7877 6.90123C13.9365 6.75694 13.8993 5.63865 14.0854 5.67472C14.3458 5.67472 14.197 6.68479 14.197 7.80309C14.3086 7.62272 14.3086 7.40628 14.3458 6.90123C14.383 6.79301 14.4574 6.86517 14.5318 6.86517C14.7179 6.72087 14.8295 6.46834 15.09 6.36012C15.5737 6.46834 15.1644 7.3702 15.5737 7.80309C15.7598 8.01954 15.276 9.71505 14.9783 10.2562C14.7551 10.0758 14.8667 9.78719 13.5644 7.83918C13.1923 7.26199 13.49 4.62856 13.1551 4.62856C13.0435 4.845 13.2295 5.4222 13.2295 6.03546C13.2667 7.62273 13.3039 7.26198 12.8574 6.97339C12.8202 6.64872 12.7086 5.35005 12.5597 5.85509C12.5597 5.89117 12.2249 7.83917 12.597 6.2519C12.6714 5.96331 12.783 6.68481 12.6714 8.27208C12.8574 8.3803 12.8574 8.38028 12.8202 8.52458C12.7086 8.48851 12.7458 8.48852 12.6342 8.45245C12.5225 8.84927 12.4109 8.74103 12.4109 9.02963C12.4109 9.67897 12.4481 9.53467 12.2621 9.85933C10.9969 9.96756 11.8155 10.0397 11.4062 6.21584C11.369 5.99939 11.4062 5.85508 11.183 5.89116C11.183 5.99938 11.2574 5.96332 11.2946 6.03546C11.5179 6.9734 11.183 6.90124 11.2946 7.04554C11.4807 7.33414 11.4434 8.74104 11.4434 9.6429C11.4434 9.78719 11.4062 9.89541 11.2574 9.85933C11.2202 9.85933 10.6621 9.75111 10.5876 9.67896C10.5132 9.31822 10.5876 8.12778 10.3644 7.83918C10.2156 7.98348 10.4016 8.16385 10.4388 8.81319C10.4388 8.95749 10.3644 8.99355 10.4016 9.02963C10.476 9.24607 10.5876 9.64288 10.3271 9.60681C9.54574 9.57073 10.29 9.28216 8.95041 9.89542C8.5411 9.6429 7.7225 10.3644 6.86668 10.653C6.45737 10.2922 7.72249 10.0036 8.57831 9.39037C8.46668 9.24607 8.57829 9.24607 7.90852 9.57074C7.53642 9.17393 8.87598 9.02964 8.98761 8.63282C9.65738 8.16385 9.76903 7.73096 10.0295 7.73096C10.2155 7.04555 10.29 6.9734 9.99229 6.57658C9.84346 5.89117 9.39692 3.94314 9.3225 4.62856C9.47134 4.80893 9.76901 5.89116 9.7318 6.14368C9.24808 5.81901 9.39694 4.52033 8.68996 4.19566C8.57833 4.33996 8.72715 4.12351 8.95041 4.5564C9.06204 4.77285 9.39692 5.53042 9.3225 5.67472C9.28529 5.67472 9.39692 5.78295 8.39226 5.20576C8.31784 5.16968 8.42949 5.09754 8.50391 5.02539C9.39694 4.08746 6.42015 5.09752 6.19689 5.27789C6.08526 5.38611 5.97362 5.2779 6.60618 4.77286C7.4248 4.12353 7.38759 3.94314 5.86199 5.16967C5.86199 5.27789 5.862 5.35005 5.82479 5.49435C3.33175 6.72088 4.41082 6.07153 4.37361 4.9893C3.9643 5.49434 4.22479 6.03545 3.92711 6.36012C4.03874 6.46834 4.00152 6.75694 3.96431 6.90123C3.88989 7.11768 3.70387 6.86518 3.66666 6.8291C2.77363 6.64873 3.07129 6.9734 3.55502 5.38613ZM10.6992 4.3039C10.1783 3.97923 9.7318 2.86092 9.91785 3.07737C10.2155 3.43811 10.5132 3.83493 10.6992 4.3039ZM14.8667 10.5448C14.7551 10.9055 14.5691 11.1941 14.6807 10.2562C14.7923 10.3283 14.7179 10.2201 14.8667 10.5448ZM13.8993 9.78718C13.8993 9.75111 13.8993 8.92141 13.3039 9.21C13.1551 9.10178 13.2667 8.95749 12.9318 8.63282C12.9318 7.80311 12.9318 7.69488 12.8574 7.47844C12.5225 6.46836 14.0109 8.70496 14.4946 9.75112C13.7877 11.6991 14.4947 9.31821 13.8993 9.78718ZM13.8621 10.2922C13.8248 10.0397 14.1225 9.67896 13.9737 10.4004C13.8993 10.4004 13.8621 10.3644 13.8621 10.2922ZM13.9365 10.689C13.6016 12.4206 13.7504 12.0959 13.2667 11.7713C13.4156 11.1219 13.676 10.0758 13.9365 10.689ZM13.2295 11.1941C13.2295 11.627 13.0435 11.6991 12.9691 11.4827C13.0063 11.3745 13.1179 11.3023 13.2295 11.1941ZM12.9318 10.5087C12.8574 10.4365 12.9319 10.4365 12.9691 10.3644C13.0435 10.4726 13.0062 10.5087 12.9318 10.5087ZM14.4574 10.2201C14.5319 10.3644 14.4574 10.9055 14.4202 10.9777C14.1225 10.9055 14.3458 10.5447 14.4574 10.2201ZM11.4062 11.4466C11.2574 9.13786 12.8946 11.9877 12.1132 11.1941C12.076 12.2402 12.2248 12.3845 11.4062 11.4466ZM12.076 12.3485C11.9272 12.8535 11.5551 12.0599 11.4807 11.8074C11.5923 11.8074 11.4807 11.6991 12.076 12.3485ZM12.2621 11.8434C12.597 11.8073 12.7086 11.7352 12.6714 11.9156C12.5969 12.601 12.5969 12.4928 12.5597 12.5649C12.2248 12.4206 12.1877 12.2042 12.2621 11.8434ZM12.3365 10.9416C12.0388 10.6169 11.8156 10.5087 12.4109 10.4365C13.1551 10.3283 12.6341 11.2662 12.3365 10.9416ZM11.1086 10.8333C10.7365 10.9416 10.9225 10.689 10.6992 10.5808C10.6248 10.9055 11.1086 10.7612 10.9969 11.8074C10.8853 11.8074 10.3644 10.7612 10.5504 10.4365C10.7737 10.4726 10.9225 10.5448 11.1458 10.5448C11.4063 10.5448 11.369 10.9055 11.2202 11.0859C11.183 11.0137 11.1458 10.9055 11.1086 10.8333ZM11.183 11.8795C11.1458 11.6631 11.1458 11.6631 11.183 11.5188C11.2202 11.6631 11.2202 11.6631 11.183 11.8795ZM7.61087 10.9416C7.16436 11.0859 6.79227 11.5909 6.82948 11.0498C7.12716 10.8694 8.24343 10.2201 8.57831 10.2201C7.68528 11.0498 7.98297 11.1219 7.61087 10.9416ZM8.05737 12.2403C7.72248 12.3485 7.49924 12.2042 7.98297 12.0238C8.02018 12.0959 8.05737 12.1681 8.05737 12.2403ZM7.57367 11.2302C7.53646 11.2662 7.46203 11.3023 7.42482 11.3384C7.42482 11.2662 7.42483 11.2662 7.57367 11.2302ZM7.01553 11.627C7.01553 11.5188 7.08991 11.4827 7.16433 11.4827C7.20154 11.5188 7.16436 11.5548 7.01553 11.627ZM8.39226 11.5548C8.46668 11.4466 8.50387 11.3023 8.65271 11.158C8.87597 12.4567 8.31784 12.3124 8.20622 12.132C8.02017 11.8434 8.20622 11.8434 8.39226 11.5548ZM8.83876 12.8174C8.80155 13.1782 8.61554 12.9617 8.68996 12.8535C8.68996 12.8174 8.72713 12.7814 8.83876 12.8174ZM8.80156 11.0137C8.87598 11.0498 8.83878 10.9776 8.95041 11.2662C8.95041 13.07 8.61551 11.7713 8.80156 11.0137ZM8.83876 13.1421C8.95039 12.9257 8.91319 12.9978 8.98761 12.7453C9.99227 12.3845 10.2528 12.2763 10.0295 13.2864C9.21088 13.6111 7.98294 13.3586 8.83876 13.1421ZM9.99229 13.8275C9.80625 14.1161 8.72717 14.0079 8.50391 13.9357C8.39228 13.4668 8.76434 13.575 9.02481 13.575C10.0295 13.5389 9.99229 13.3585 9.99229 13.8275ZM9.43415 10.7612C9.21089 10.9776 9.6574 12.5649 9.09925 11.1941C8.80158 10.4365 9.95505 10.0758 10.3271 10.3283C10.3644 10.5447 10.3271 10.184 10.3271 11.627C10.3271 12.8174 9.50857 10.9055 9.43415 10.7612ZM9.80625 11.9516C9.69462 12.1681 9.43411 12.0959 9.58295 11.4105C9.65737 11.627 9.73183 11.7713 9.80625 11.9516ZM9.02481 11.5909C9.13644 11.627 9.17368 11.6991 9.2481 12.0959C8.98764 12.132 9.02481 12.2042 9.02481 11.5909ZM10.1411 13.4668C10.4388 13.3585 10.5876 13.3586 10.2155 13.3225C10.1039 13.1782 10.2528 13.0339 10.3644 12.9257C10.5504 12.4928 10.1783 12.2042 11.0341 13.0339C11.1458 13.6471 10.9597 13.5389 10.5876 13.6832C10.0667 13.8636 10.1411 13.8997 10.1411 13.4668ZM11.0713 12.8174C10.8481 12.7092 10.7365 12.5288 10.5504 12.4206C10.5504 12.3485 10.5504 12.3124 10.5504 12.2403C10.4016 12.0238 10.4388 12.132 10.4388 11.4466C10.4388 11.0137 10.7365 11.9516 10.9225 12.3124C11.1086 12.3485 11.183 12.3124 11.0713 12.8174ZM6.82948 11.7352C6.79227 11.6991 6.79227 11.6991 6.82948 11.7352V11.7352ZM6.01084 11.4466C5.93642 11.3384 5.97363 11.2302 6.01084 11.1219C6.08526 11.2302 6.15968 11.3745 6.01084 11.4466ZM6.08529 11.9156C6.08529 11.9516 6.08529 11.9516 6.08529 11.9156V11.9156ZM9.3225 6.90123C9.80623 7.58665 8.83876 7.98347 8.09457 8.41636C8.02015 8.45244 8.02019 8.41636 7.94577 8.34421C6.82948 9.49859 6.97828 8.95749 6.04804 8.63282C5.97362 7.91133 5.89921 8.0917 7.12713 7.65881C7.27597 7.73096 7.23877 7.73094 7.27598 7.62272C7.42481 7.47842 8.09457 7.33414 7.72247 7.22591C6.79223 7.62273 7.27596 7.6588 5.67594 6.90123C5.41548 6.36012 5.15502 6.79302 5.0806 6.43227C5.04339 5.99938 4.85736 6.17976 5.93644 5.67472C6.30853 5.92724 8.1318 5.09752 9.3225 6.90123ZM7.23877 5.20576C7.61087 4.98931 8.95042 4.73679 7.98297 5.31398C7.75971 5.2779 7.49924 5.24183 7.23877 5.20576ZM8.50391 8.34421C8.42949 8.52458 8.05736 8.59673 8.09457 8.59673C8.09457 8.48851 8.4667 8.38028 8.50391 8.34421ZM7.94577 9.28215C7.61088 9.42645 7.46201 9.67897 7.12713 9.21C7.23876 9.0657 7.27597 9.02962 7.49922 8.95748C7.53643 9.02962 7.57365 9.0657 7.64807 9.13785C7.72249 9.17392 7.83414 9.17393 7.94577 9.28215ZM5.0806 8.05562C5.15502 8.01954 5.52712 8.01955 5.60154 8.01955C5.8248 8.01955 6.01083 7.9474 5.86199 8.56067C5.04338 8.56067 4.96897 8.70496 5.0806 8.05562ZM5.89924 7.83918C5.00621 7.87525 5.08063 8.05562 5.15505 6.97339C5.34109 6.75694 5.30388 7.15376 5.89924 7.26198C6.5318 7.40628 6.71784 7.44237 6.86668 7.55059C6.71784 7.65881 6.30854 7.76703 6.08529 7.76703C6.01087 7.69488 6.04808 7.00947 5.89924 7.83918ZM6.01084 10.8694C6.01084 10.7251 5.97365 10.7251 6.12249 10.7612C6.08528 10.7973 6.08526 10.7973 6.01084 10.8694ZM6.01084 8.92141C6.27131 8.84926 6.60618 9.06571 6.60618 9.35431C6.15967 9.89542 6.56898 9.46253 6.75503 9.46253C6.97829 9.67897 7.08991 9.75112 6.97828 9.82327C5.71315 10.6891 5.97363 10.7973 6.01084 8.92141ZM6.38294 11.158C6.38294 11.2302 6.30854 11.3023 6.27133 11.158C6.27133 11.1219 6.34573 11.0859 6.38294 11.158ZM6.19689 10.9416C6.2341 10.8333 6.53178 10.5808 6.53178 10.7612C6.56899 10.9416 6.34573 10.9776 6.19689 10.9416ZM6.56898 11.2662C6.71782 11.4466 6.49458 11.8795 6.30853 11.4827C6.38295 11.3745 6.45736 11.3023 6.56898 11.2662ZM6.53178 10.4365C6.15969 10.7612 6.01087 10.4365 7.20157 9.85933C7.83414 9.96756 6.75504 10.2562 6.53178 10.4365ZM4.41085 11.5188C4.44806 12.3846 4.18756 11.7713 3.62942 10.8694C3.70384 10.5447 3.62943 10.2562 3.74106 9.93149C4.41084 9.57074 3.62942 9.53467 3.81546 8.41636C3.92709 7.62273 3.77829 7.55059 4.03876 7.47844C4.55969 7.87525 4.55966 6.68479 4.93175 7.98346C4.29919 13.6832 4.29919 9.85933 3.81546 10.2201C3.81546 10.4004 3.88992 10.5087 4.41085 11.5188ZM3.92711 7.11769C4.00153 6.36013 3.88991 6.61264 4.44805 6.36012C5.04341 6.1076 4.93175 6.10762 4.93175 6.64873C4.15035 6.9734 4.15037 7.33414 3.92711 7.11769ZM4.93175 7.55059C4.78291 7.47844 5.00619 7.40628 4.6713 7.22591C4.63409 7.00947 5.1178 6.75696 4.93175 7.55059ZM1.43409 4.33997C2.06665 2.53625 2.66197 2.24766 3.25732 1.81476C3.62942 1.52617 2.21546 3.61848 1.91778 4.33997C1.84336 4.48426 1.21083 4.91716 1.43409 4.33997ZM2.43873 5.45826C2.36431 5.27789 2.43872 5.09752 2.47593 4.91715C2.58756 5.13359 2.47594 5.27789 2.43873 5.45826ZM1.91778 6.10762C1.84336 5.96332 1.91781 5.71079 1.99223 5.53041C2.02944 5.67471 2.06662 6.03547 1.91778 6.10762ZM1.84338 6.6848C1.80617 6.3962 1.80615 6.36012 1.95498 6.2519C1.95498 6.43227 1.95501 6.43228 1.84338 6.6848ZM1.69454 5.49435C1.76895 5.63865 1.47126 6.82909 1.39684 6.43227C1.35963 6.17975 1.50848 6.10761 1.35964 5.85509C1.24801 5.63865 1.47128 5.53042 1.69454 5.49435ZM2.25268 7.87525C2.21547 8.38029 2.17826 8.30813 1.88058 8.52458C1.73174 9.06569 1.76896 8.99355 1.65733 8.95748C1.58292 7.00946 0.727068 6.97339 1.58289 7.04554C1.54568 6.6848 1.50851 6.75695 1.62013 6.6848C1.69455 6.90124 1.65733 7.00946 1.88058 7.15376C2.47594 7.47843 2.25268 7.55058 2.25268 7.87525ZM2.32708 8.12777C2.32708 7.58666 2.69918 7.47842 2.88522 7.62272C2.73639 8.12776 2.17826 8.05563 3.74106 7.55059C3.81548 7.65881 3.70387 8.74103 3.66666 8.88532C2.36433 8.16384 2.32708 8.41637 2.32708 8.12777ZM3.22012 13.4668C2.88523 13.1421 2.51316 12.0238 2.95967 12.1681C3.0713 12.3124 2.99687 12.4567 2.99687 12.5649C3.03408 12.8174 3.25734 12.8535 3.36897 13.0339C3.33176 13.106 3.55501 13.7914 3.22012 13.4668ZM6.19689 13.9357C5.60153 13.8636 5.97365 13.5028 5.56434 13.4307C5.26667 13.5028 5.08061 13.8997 5.0434 14.2243C4.82014 14.2243 4.6341 14.2965 4.44805 14.08C4.78294 13.7554 4.55966 14.044 4.37361 13.6471C4.29919 13.4668 4.11314 13.3585 4.00151 12.9978C3.85267 12.4567 3.48061 12.4567 3.29457 12.3485C3.0341 12.0238 3.14572 12.132 2.77362 11.9516C2.73641 11.8073 2.69919 11.7713 2.81082 11.7352C3.25734 11.5188 3.22011 11.5548 3.25732 11.5909C3.33174 11.5187 3.14569 11.3023 3.07127 11.2662C2.8108 10.9776 2.47594 11.0137 2.43873 10.8333C3.18292 10.1119 1.88058 8.59675 3.55502 9.89542C3.62943 10.0397 3.51782 10.6169 3.48061 10.689C3.14573 10.5087 3.22015 10.4365 3.10852 10.5448C3.36899 10.6169 3.22013 10.5448 3.36897 10.7251C3.59222 11.0498 3.51782 10.8333 3.48061 11.1941C3.4434 11.9877 3.48058 11.8795 3.62942 11.1941C3.81546 11.3384 4.00153 11.627 4.29921 12.2403C4.29921 12.3485 4.29921 12.4928 4.29921 12.6731C4.70851 12.132 5.4155 14.2604 4.44805 12.2763C4.44805 12.2402 4.44805 11.627 4.6341 11.9156C4.96899 12.3845 5.11781 12.6731 5.4527 12.9257C5.82479 13.2142 5.00621 12.3485 4.5969 11.4827C4.70853 11.1941 4.6713 10.6169 4.85735 11.0498C6.12248 14.044 6.60619 13.4668 6.19689 13.9357ZM8.16901 14.6933C8.20622 15.0901 7.90853 14.8376 7.31318 14.5129C6.01084 13.7914 6.60619 14.1883 6.75503 12.7814C6.6434 12.8535 6.6434 12.9256 6.38294 13.3946C6.30852 13.0699 6.34574 13.106 6.30853 13.3225C6.04807 13.4307 3.9271 9.78719 5.26665 8.7771C6.12247 8.63281 5.93641 8.77711 5.86199 11.0137C5.86199 11.6991 5.52711 10.2201 5.4527 10.6169C5.34107 11.1219 5.8992 11.6991 5.86199 12.2763C5.82478 12.6731 5.97362 12.2763 6.04804 12.4567C6.2713 12.9257 6.23411 12.5649 6.34574 12.5288C6.53178 12.5649 6.6062 13.0339 6.71783 12.7453C6.71783 12.8174 7.64809 12.9617 8.31786 12.8896C8.57833 13.0339 8.50388 13.2864 8.42946 13.4668C8.13179 13.5028 7.61085 13.5029 7.31318 13.5029C6.79224 13.5029 6.45735 13.6111 6.97828 13.6111C8.50387 13.6111 8.39227 13.5028 8.35506 13.9357C8.20622 13.9718 8.31784 14.0079 7.87132 13.8997C7.83411 13.8636 7.83411 13.8275 7.87132 13.7914C6.53177 13.9357 8.91318 14.1522 9.02481 14.1883C9.02481 14.3326 8.35506 14.3686 8.16901 14.6933ZM8.87601 14.9458C8.0574 14.9819 10.3644 14.2604 10.662 14.2965C10.6992 14.4047 9.47136 14.9098 8.87601 14.9458ZM9.2853 15.0901C9.50856 14.9458 9.28531 15.1262 10.5504 14.5851C11.7411 14.044 10.1411 15.4148 9.2853 15.0901ZM14.6807 12.4567C15.276 12.4567 13.3783 13.7193 12.2993 13.8997C12.1132 13.8636 11.7411 13.4668 12.1504 13.9357C12.076 14.0079 12.2249 13.9357 11.369 14.2604C10.9225 14.4408 10.9969 14.3686 11.0713 14.1883C10.8481 13.9357 8.65272 14.7294 8.42946 14.6933C8.65272 14.5129 9.69459 14.1522 9.91785 14.1522C10.5876 14.08 12.0388 13.4307 11.369 13.6111C11.2202 13.5028 11.183 12.9978 11.5551 13.4307C11.5551 13.6111 11.5179 13.575 11.6667 13.5029C12.5225 14.08 11.5551 13.2503 11.5179 13.2503C11.1086 12.9978 11.3318 12.6371 11.369 11.9877C11.5179 12.0238 11.4807 12.096 11.7039 12.5288C11.9644 12.9978 12.2249 12.601 12.2621 12.5288C12.597 12.6371 12.5969 12.8896 12.6714 13.1421C12.8202 13.0339 12.6341 12.9617 12.9318 12.7453C12.9318 12.601 12.9691 12.6371 12.8202 12.6731C12.7458 12.601 12.8946 11.7713 12.8946 11.6631C13.3039 11.6631 13.0435 12.132 13.0807 12.2763C13.1551 12.2763 13.1551 12.2402 13.2295 11.9516C13.3783 11.8434 14.0853 12.6731 14.383 12.3845C14.1597 12.3845 13.9737 12.2763 13.7877 12.132C14.1598 10.8333 14.1225 10.8694 14.383 11.1941C14.2714 11.4105 14.2342 11.3384 14.4946 11.5909C14.7923 11.4105 14.7179 11.6991 15.09 11.7713C15.2016 11.9156 14.6807 12.2763 14.6807 12.4567ZM15.1272 11.627C14.7551 11.5548 14.8295 11.3023 15.1272 11.3745C15.2016 11.4466 15.1644 11.5188 15.1272 11.627ZM15.3132 11.5548C15.2388 11.4827 15.2016 11.3384 15.3132 11.3023C15.3504 11.3745 15.3504 11.4466 15.3132 11.5548ZM15.6853 9.10178C15.6853 9.24608 15.4249 9.89542 15.3504 10.0036C15.2388 10.9055 15.7225 6.9734 15.6853 9.10178ZM11.9272 6.54049C11.89 6.17975 12.0388 6.25191 12.0388 6.32405C12.1505 6.61265 12.2249 11.0859 11.9272 6.54049ZM4.93175 5.89116C4.96896 5.89116 4.96896 5.89116 4.93175 5.89116V5.89116ZM5.0434 5.85509C5.00619 5.89117 5.00621 5.89116 4.969 5.89116C5.00621 5.89116 5.00619 5.85509 5.0434 5.85509ZM11.7411 2.86093C11.7411 2.86093 11.7039 2.897 11.7411 2.86093V2.86093ZM5.4899 5.5665C5.45269 5.5665 5.45269 5.5665 5.4899 5.5665C5.4899 5.53043 5.4899 5.53043 5.4899 5.5665ZM5.22945 5.71079C5.22945 5.74686 5.22945 5.74686 5.22945 5.71079C5.26666 5.71079 5.26666 5.71079 5.22945 5.71079ZM5.0806 5.85509C5.04339 5.85509 5.04339 5.85509 5.0806 5.85509C5.0806 5.81902 5.0806 5.81902 5.0806 5.85509ZM3.77826 6.57658C3.74105 6.61265 3.74105 6.61265 3.77826 6.57658V6.57658ZM5.0062 13.1421C4.93178 13.07 5.08059 13.2143 5.1178 13.2503C5.15501 13.2864 5.11783 13.2503 5.0062 13.1421ZM14.383 12.3845C14.4202 12.3845 14.4202 12.3845 14.383 12.3845V12.3845ZM7.94577 13.7914C7.94577 13.7554 7.98298 13.7554 7.94577 13.7914V13.7914ZM1.58289 7.04554C1.58289 7.04554 1.58289 7.08162 1.58289 7.04554V7.04554ZM12.1504 11.1941C12.1132 11.158 12.1132 11.158 12.1504 11.1941V11.1941Z" fill="white"/>
</svg>
