<svg width="139" height="53" viewBox="0 0 139 53" fill="none" xmlns="http://www.w3.org/2000/svg">
<path d="M99.5638 4.60776C99.4499 4.28309 99.393 3.98547 99.08 3.95842C98.8809 3.11969 98.6817 3.30909 98.5679 2.82209C98.3971 2.17275 98.1695 2.36214 97.7711 1.73986C97.572 1.44225 97.4297 1.52341 97.2305 1.19875C97.0313 0.928188 96.7183 0.87407 96.576 0.819958C96.0639 0.657624 96.4338 0.0894496 94.6127 0.0894496C92.3079 0.0894496 92.5071 -0.397554 90.06 0.901122C89.5193 0.522342 89.2917 0.874066 88.6942 1.30696C88.2674 1.63163 88.0682 2.06453 87.6983 2.82209C87.4707 3.25498 87.5845 4.09371 87.3853 4.25604C86.9869 4.58071 87.1576 4.8242 87.0723 5.36532C86.9869 5.85232 86.93 6.25817 87.1861 6.60989C87.4137 6.06878 87.4422 6.01466 87.4137 6.77222C87.4137 6.85339 87.3853 7.04278 87.2715 7.12394C87.243 7.09689 87.243 7.06984 87.2145 7.01573C86.4178 7.44862 88.0967 9.28841 88.0967 9.31547C88.2674 9.77542 88.2958 9.23429 88.5235 10.2354C88.6657 10.4518 89.121 10.8576 89.6901 10.9929C89.8893 11.047 90.5153 11.6964 91.312 11.1011C91.6819 10.8306 92.1087 11.6422 93.1615 11.534C94.0436 12.3457 95.2387 12.0481 95.9501 11.02C96.1208 10.7765 96.576 10.9388 97.0029 10.8576C98.0557 10.6682 99.4784 9.58602 99.3646 8.66612C99.1654 7.06983 100.73 5.90644 99.5638 4.60776ZM97.2305 1.92924C97.3443 2.0104 97.3728 2.14569 97.4866 2.25391C97.4582 2.28096 97.4581 2.30802 97.4297 2.30802C97.3159 2.22686 97.1167 2.0104 97.2305 1.92924ZM96.9744 2.82209C97.2874 2.98442 97.5435 2.95736 97.7427 2.98442C98.0841 3.30909 98.198 3.60671 98.0841 4.0396C97.9134 4.85127 98.0272 4.7701 97.9134 3.57965C97.885 3.3632 97.7427 3.20086 97.6858 3.82314C97.4297 3.74197 97.5435 3.44436 97.4866 3.20086C97.3443 3.09264 97.4297 3.39026 97.3728 3.44437C97.259 3.41731 96.946 2.82209 96.9744 2.82209ZM97.9703 5.0136C97.9419 4.95949 97.9134 4.90537 97.9703 4.8242C98.0272 4.90537 98.0272 4.95949 97.9703 5.0136ZM97.7996 3.68786C97.8281 3.79608 97.8565 3.90432 97.7996 4.0396C97.7142 3.90432 97.7711 3.79608 97.7996 3.68786ZM97.7996 4.22897C97.7427 4.3372 97.7142 4.22899 97.7711 4.17488C97.7711 4.20193 97.7711 4.20192 97.7996 4.22897ZM97.6289 4.44543C97.572 4.2831 97.4866 3.93137 97.6289 4.01253C97.6858 4.14781 97.6573 4.2831 97.6289 4.44543ZM96.2915 1.33402C96.4907 1.11758 96.5476 2.11863 96.4338 1.98335C96.2915 1.79396 96.4338 1.84808 96.2915 1.36107C96.2915 1.36107 96.2915 1.36108 96.2915 1.33402ZM92.5924 0.819958C92.6493 0.819958 92.7063 0.847007 92.564 0.847007C92.564 0.819951 92.564 0.819958 92.5924 0.819958ZM92.4786 0.847007C92.2225 1.00934 92.1087 0.874063 92.0518 0.847007C92.4786 0.819951 92.3648 0.819951 92.4786 0.847007ZM92.0518 0.684679C92.0802 0.684679 92.7916 0.65762 91.9949 0.765843C91.9664 0.765843 91.938 0.711735 92.0518 0.684679ZM91.7672 0.955237C91.7957 0.955237 91.7957 0.982292 91.7672 0.955237V0.955237ZM93.503 0.955237C93.4176 1.0364 92.3079 1.60457 92.2794 1.63163C90.4868 2.25391 92.3079 1.46929 92.4786 1.25284C92.4501 1.00934 91.625 1.36107 91.4543 1.30696V1.33402C91.312 1.2258 93.4176 0.711735 93.503 0.955237ZM90.999 3.06558C90.9136 2.98441 90.9136 3.03853 90.999 2.90325C91.1128 2.90325 91.0844 3.06558 91.2266 2.9303C91.7957 2.38919 91.6535 2.65975 91.2266 3.20086C90.9421 3.06558 91.2266 2.98441 90.999 3.06558ZM91.1697 1.55047C91.2266 1.7128 91.1697 1.95631 90.8852 2.01042C90.8283 1.79397 90.8567 1.55047 91.1697 1.55047ZM91.1413 1.22579C91.2266 1.25285 91.1982 1.22579 91.1697 1.30696C91.0274 1.36107 91.0559 1.30696 91.1413 1.22579ZM90.9421 2.17275C90.9136 2.22686 90.9136 2.22685 90.8567 2.19979C90.9136 2.14568 90.9136 2.14569 90.9421 2.17275ZM91.0559 2.33507C90.999 2.55152 91.0274 2.49742 90.9136 2.55153C90.7998 2.47036 90.8567 2.28096 91.0559 2.33507ZM91.2551 2.79502C91.0844 2.79502 91.1412 2.79503 91.0559 2.76797C91.0274 2.38919 93.1046 1.79396 91.2551 2.79502ZM91.1413 2.33507C91.1982 2.11863 91.4258 2.03747 91.6535 1.9563C91.7957 2.30803 93.1046 1.52341 92.1656 2.17275C91.6819 2.14569 91.0844 2.60563 91.1413 2.33507ZM91.3404 1.22579C91.312 1.19874 91.312 1.17168 91.2835 1.11756C91.4543 1.0364 91.6534 1.14463 91.3404 1.22579ZM91.3404 1.5234C91.5112 1.44223 93.0192 0.982292 91.4827 1.76691C91.2551 1.84808 91.2551 1.73985 91.3404 1.5234ZM90.1169 1.65868C90.4015 1.19873 91.625 0.46824 90.9705 1.19875C90.5437 1.68575 90.7145 1.68574 90.5153 1.57752C90.3446 1.57752 90.0031 1.84807 90.1169 1.65868ZM90.6291 2.6327C90.6006 2.47036 90.5722 2.52447 90.7144 2.49742C90.7429 2.60564 90.7713 2.57858 90.6291 2.6327ZM90.686 2.76797C90.6006 2.82209 90.6006 2.84914 90.6291 2.76797C90.6291 2.76797 90.6575 2.76797 90.686 2.76797ZM90.686 2.36214C90.6575 2.36214 90.6291 2.36214 90.6006 2.36214C90.6006 2.06453 90.7998 2.17275 90.686 2.36214ZM90.7144 1.9563C90.7144 1.98336 90.7144 1.98336 90.7144 1.9563V1.9563ZM90.5437 2.03747C90.2876 2.09158 90.1169 2.1998 90.6006 1.71279C90.6575 1.79396 90.5722 1.98335 90.5437 2.03747ZM89.8324 2.22686C89.9177 1.9563 90.2592 1.79397 90.4015 1.73986C90.2307 2.03747 89.7755 2.41625 89.8324 2.22686ZM89.747 2.55153C89.9177 2.30803 90.2023 2.25391 90.4583 2.11863C90.7713 2.57858 89.7186 2.74091 89.9462 2.9303C90.5153 2.76797 90.4299 2.76797 90.4868 2.84914C89.8039 3.14675 89.5763 3.33615 89.747 2.55153ZM90.4583 2.65975C90.4299 2.74091 90.373 2.74091 90.2876 2.74091C90.3161 2.65974 90.4014 2.60563 90.4583 2.65975ZM89.7185 3.30909C89.7754 3.17381 90.4015 2.95737 90.686 2.95737C91.1413 3.39026 91.312 3.1738 89.8608 3.87725C89.6616 3.95842 89.747 3.90432 89.7185 3.30909ZM89.7185 4.0396C89.7185 4.01254 91.1982 3.17381 90.9421 3.52553C90.6291 3.95842 90.4868 4.12076 90.373 4.41837C90.4584 4.5807 90.6575 4.49954 90.7429 4.39132C90.6006 4.41838 90.4299 4.49954 90.4868 4.3372C90.5437 4.17487 90.9705 3.39025 91.3689 3.33614C91.4543 3.06558 91.8242 3.09264 92.251 3.06558C92.1087 2.95736 91.938 3.03853 91.7672 2.98442C92.4217 2.87619 91.9095 2.98442 91.5681 2.98442C91.625 2.63269 92.6778 1.95629 93.19 1.65868C94.1859 1.11756 91.2551 2.22685 92.4502 1.65868C92.6209 1.41518 93.3607 1.2258 93.6737 0.928188C93.816 0.901132 94.1859 1.09051 94.3566 1.0364C94.2144 0.901122 93.7022 0.819951 93.6737 0.711728C93.7875 0.684673 94.4135 0.684683 94.6127 0.738794C94.8119 0.928184 94.8972 0.95524 95.4094 1.27991C95.7509 1.49635 95.6086 1.63163 96.007 1.98335C96.007 2.09157 95.95 2.06452 96.3199 1.98335C96.4622 2.17274 96.8321 3.49848 96.5476 3.17381C95.7224 2.25392 95.068 0.143568 95.5801 2.36214C95.7793 3.28203 95.2102 1.4693 94.8972 1.27991C94.698 1.27991 95.068 1.98335 95.2387 2.71386C95.2956 2.76797 95.2671 2.84914 95.2671 2.84914C95.4094 3.01147 94.3566 1.38813 94.2712 1.41519C94.2712 1.57752 95.7224 3.49848 94.2997 1.73986C94.129 1.55047 93.9013 1.00935 94.4135 2.03747C95.2102 3.71492 93.7875 1.09052 92.877 2.09158C92.9623 2.33508 93.2469 1.63162 94.3851 2.74091C95.0111 3.33614 95.1249 3.41731 95.2103 3.74197C95.2956 4.03959 95.4379 4.63482 95.381 4.98655C95.2672 4.98655 95.0395 3.71493 94.8972 3.3632C94.7265 3.39026 94.7834 3.3632 95.2103 4.93243C95.381 5.58177 95.3525 6.25816 95.2387 5.90643C95.0395 5.17593 94.8403 3.74198 94.5273 3.71493C94.442 3.76904 94.4704 4.14781 94.4989 4.20193C94.6412 4.12076 94.3282 2.68681 95.2387 6.33934C95.3525 6.82634 95.4094 5.87939 95.324 5.39239C95.637 5.04066 95.2671 4.01254 95.2671 3.76904C95.7509 3.93138 96.4338 6.20404 95.0111 1.79396C94.8688 1.38812 95.2672 1.82102 95.6655 3.33614C95.8362 3.90431 95.8078 3.28204 95.8078 3.22793C95.694 2.49742 95.4379 1.63163 95.6371 1.98335C97.2874 4.87832 96.5192 2.25391 96.633 2.4433C97.3159 3.6067 97.202 3.14675 97.4581 3.95842C97.5435 4.20192 97.4012 5.14887 97.5435 5.17593C97.6573 5.0677 97.6289 4.22898 97.7711 4.25604C97.9703 4.25604 97.8565 5.01359 97.8565 5.85232C97.9419 5.71704 97.9419 5.55471 97.9703 5.17593C97.9988 5.09476 98.0557 5.14888 98.1126 5.14888C98.2549 5.04065 98.3402 4.85126 98.5394 4.77009C98.9093 4.85126 98.5963 5.52765 98.9093 5.85232C99.0516 6.01465 98.6817 7.28629 98.454 7.69212C98.2833 7.55684 98.3687 7.3404 97.3728 5.87939C97.0882 5.44649 97.3159 3.47142 97.0598 3.47142C96.9744 3.63375 97.1167 4.06665 97.1167 4.5266C97.1451 5.71705 97.1736 5.44649 96.8321 5.23004C96.8037 4.98654 96.7183 4.01254 96.6045 4.39132C96.6045 4.41838 96.3484 5.87938 96.633 4.68893C96.6899 4.47248 96.7752 5.0136 96.6899 6.20406C96.8321 6.28522 96.8321 6.28521 96.8037 6.39343C96.7183 6.36638 96.7468 6.36639 96.6614 6.33934C96.5761 6.63695 96.4907 6.55578 96.4907 6.77222C96.4907 7.25922 96.5191 7.151 96.3769 7.3945C95.4094 7.47567 96.0354 7.52979 95.7224 4.66188C95.694 4.49954 95.7224 4.39131 95.5517 4.41837C95.5517 4.49954 95.6086 4.47249 95.6371 4.5266C95.8078 5.23005 95.5517 5.17593 95.6371 5.28416C95.7793 5.5006 95.7509 6.55578 95.7509 7.23217C95.7509 7.3404 95.7224 7.42156 95.6086 7.3945C95.5801 7.3945 95.1533 7.31333 95.0964 7.25922C95.0395 6.98866 95.0964 6.09583 94.9257 5.87939C94.8119 5.98761 94.9542 6.12289 94.9826 6.60989C94.9826 6.71812 94.9257 6.74517 94.9542 6.77222C95.0111 6.93456 95.0964 7.23216 94.8972 7.20511C94.2997 7.17805 94.8688 6.96162 93.8444 7.42157C93.5314 7.23218 92.9054 7.77328 92.251 7.98973C91.938 7.71917 92.9054 7.50273 93.5599 7.04278C93.4745 6.93456 93.5599 6.93456 93.0477 7.17806C92.7631 6.88044 93.7875 6.77223 93.8729 6.47462C94.3851 6.12289 94.4704 5.79822 94.6696 5.79822C94.8119 5.28416 94.8688 5.23005 94.6412 4.93243C94.5273 4.41838 94.1859 2.95736 94.129 3.47142C94.2428 3.6067 94.4704 4.41837 94.442 4.60776C94.0721 4.36426 94.1859 3.39025 93.6453 3.14675C93.5599 3.25497 93.6737 3.09263 93.8444 3.4173C93.9298 3.57964 94.1859 4.14782 94.129 4.25604C94.1005 4.25604 94.1859 4.33721 93.4176 3.90432C93.3607 3.87726 93.4461 3.82315 93.503 3.76904C94.1859 3.06559 91.9095 3.82314 91.7388 3.95842C91.6534 4.03958 91.5681 3.95843 92.0518 3.57965C92.6778 3.09264 92.6493 2.95736 91.4827 3.87725C91.4827 3.95842 91.4827 4.01254 91.4543 4.12076C89.5478 5.04066 90.373 4.55365 90.3445 3.74197C90.0315 4.12076 90.2307 4.52659 90.0031 4.77009C90.0884 4.85126 90.06 5.0677 90.0315 5.17593C89.9746 5.33826 89.8324 5.14888 89.8039 5.12183C89.121 4.98655 89.3486 5.23005 89.7185 4.0396ZM95.1818 3.22793C94.7834 2.98442 94.442 2.14569 94.5842 2.30802C94.8119 2.57858 95.0395 2.8762 95.1818 3.22793ZM98.3687 7.90857C98.2833 8.17912 98.1411 8.39557 98.2264 7.69212C98.3118 7.74623 98.2549 7.66506 98.3687 7.90857ZM97.6289 7.34039C97.6289 7.31333 97.6288 6.69105 97.1736 6.9075C97.0598 6.82633 97.1451 6.71812 96.889 6.47462C96.889 5.85233 96.889 5.77116 96.8321 5.60883C96.5761 4.85127 97.7142 6.52872 98.0841 7.31334C97.5435 8.77435 98.0841 6.98866 97.6289 7.34039ZM97.6004 7.71917C97.5719 7.52978 97.7996 7.25922 97.6858 7.80034C97.6289 7.80034 97.6004 7.77328 97.6004 7.71917ZM97.6573 8.01678C97.4012 9.31545 97.515 9.07195 97.1451 8.82845C97.259 8.34145 97.4581 7.55683 97.6573 8.01678ZM97.1167 8.39557C97.1167 8.72023 96.9744 8.77434 96.9175 8.61201C96.946 8.53084 97.0313 8.47673 97.1167 8.39557ZM96.889 7.8815C96.8321 7.82739 96.8891 7.8274 96.9175 7.77329C96.9744 7.85445 96.9459 7.8815 96.889 7.8815ZM98.0557 7.66506C98.1126 7.77328 98.0557 8.17913 98.0272 8.23324C97.7996 8.17913 97.9703 7.90856 98.0557 7.66506ZM95.7224 8.58496C95.6086 6.85339 96.8606 8.99079 96.2631 8.39557C96.2346 9.18018 96.3484 9.28841 95.7224 8.58496ZM96.2346 9.26135C96.1208 9.64013 95.8363 9.04491 95.7793 8.85552C95.8647 8.85552 95.7793 8.77435 96.2346 9.26135ZM96.3769 8.88257C96.633 8.85551 96.7183 8.8014 96.6899 8.93668C96.633 9.45074 96.6329 9.36957 96.6045 9.42368C96.3484 9.31546 96.32 9.15312 96.3769 8.88257ZM96.4338 8.20617C96.2061 7.96267 96.0354 7.88151 96.4907 7.8274C97.0598 7.74623 96.6614 8.44967 96.4338 8.20617ZM95.4948 8.12501C95.2103 8.20618 95.3525 8.01678 95.1818 7.93562C95.1249 8.17912 95.4948 8.0709 95.4094 8.85552C95.3241 8.85552 94.9257 8.0709 95.068 7.8274C95.2387 7.85446 95.3525 7.90857 95.5232 7.90857C95.7224 7.90857 95.694 8.17912 95.5801 8.3144C95.5517 8.26029 95.5233 8.17912 95.4948 8.12501ZM95.5517 8.90963C95.5232 8.7473 95.5232 8.7473 95.5517 8.63907C95.5801 8.7473 95.5801 8.7473 95.5517 8.90963ZM92.8201 8.20617C92.4786 8.3144 92.1941 8.69317 92.2225 8.28734C92.4502 8.15206 93.3038 7.66506 93.5599 7.66506C92.877 8.28734 93.1046 8.34145 92.8201 8.20617ZM93.1615 9.18019C92.9054 9.26136 92.7347 9.15312 93.1046 9.01785C93.1331 9.07196 93.1615 9.12608 93.1615 9.18019ZM92.7916 8.42262C92.7632 8.44967 92.7063 8.47674 92.6778 8.5038C92.6778 8.44968 92.6778 8.44967 92.7916 8.42262ZM92.3648 8.72024C92.3648 8.63907 92.4217 8.61201 92.4786 8.61201C92.5071 8.63906 92.4786 8.66613 92.3648 8.72024ZM93.4176 8.66612C93.4745 8.58496 93.503 8.47674 93.6168 8.36852C93.7875 9.34252 93.3607 9.23429 93.2753 9.09901C93.1331 8.88256 93.2753 8.88257 93.4176 8.66612ZM93.7591 9.61307C93.7306 9.88363 93.5884 9.72129 93.6453 9.64012C93.6453 9.61307 93.6737 9.58602 93.7591 9.61307ZM93.7306 8.26029C93.7875 8.28734 93.7591 8.23324 93.8444 8.44968C93.8444 9.80247 93.5883 8.82846 93.7306 8.26029ZM93.7591 9.85658C93.8444 9.69425 93.816 9.74835 93.8729 9.55896C94.6411 9.2884 94.8403 9.20724 94.6696 9.9648C94.0436 10.2083 93.1046 10.0189 93.7591 9.85658ZM94.6412 10.3706C94.4989 10.5871 93.6737 10.5059 93.503 10.4518C93.4176 10.1001 93.7021 10.1812 93.9013 10.1812C94.6696 10.1542 94.6412 10.0189 94.6412 10.3706ZM94.2144 8.07089C94.0436 8.23323 94.3851 9.42368 93.9583 8.39557C93.7306 7.8274 94.6127 7.55683 94.8972 7.74622C94.9257 7.90856 94.8972 7.63801 94.8972 8.72024C94.8972 9.61308 94.2713 8.17912 94.2144 8.07089ZM94.4989 8.96373C94.4135 9.12606 94.2143 9.07195 94.3281 8.55789C94.385 8.72023 94.442 8.82845 94.4989 8.96373ZM93.9013 8.69317C93.9867 8.72023 94.0152 8.77435 94.0721 9.07196C93.8729 9.09902 93.9013 9.15312 93.9013 8.69317ZM94.755 10.1001C94.9826 10.0189 95.0964 10.0189 94.8119 9.99186C94.7265 9.88364 94.8403 9.77541 94.9257 9.69424C95.068 9.36957 94.7834 9.15312 95.4379 9.7754C95.5232 10.2353 95.381 10.1542 95.0964 10.2624C94.6981 10.3977 94.755 10.4247 94.755 10.1001ZM95.4663 9.61307C95.2956 9.53191 95.2103 9.39664 95.068 9.31547C95.068 9.26136 95.068 9.2343 95.068 9.18019C94.9542 9.01785 94.9826 9.09902 94.9826 8.58496C94.9826 8.26029 95.2103 8.96373 95.3525 9.23429C95.4948 9.26134 95.5517 9.23429 95.4663 9.61307ZM92.2225 8.8014C92.1941 8.77435 92.1941 8.77435 92.2225 8.8014V8.8014ZM91.5965 8.58496C91.5396 8.50379 91.5681 8.42262 91.5965 8.34145C91.6534 8.42262 91.7103 8.53085 91.5965 8.58496ZM91.6535 8.93668C91.6535 8.96374 91.6535 8.96374 91.6535 8.93668V8.93668ZM94.129 5.17593C94.4989 5.68999 93.7591 5.9876 93.19 6.31227C93.1331 6.33933 93.1331 6.31227 93.0762 6.25816C92.2225 7.12394 92.3363 6.71812 91.625 6.47462C91.5681 5.9335 91.5112 6.06878 92.4502 5.74411C92.564 5.79822 92.5355 5.79821 92.564 5.71704C92.6778 5.60882 93.19 5.5006 92.9054 5.41943C92.1941 5.71705 92.564 5.7441 91.3404 5.17593C91.1412 4.77009 90.9421 5.09476 90.8852 4.8242C90.8567 4.49954 90.7145 4.63482 91.5396 4.25604C91.8242 4.44543 93.2184 3.82314 94.129 5.17593ZM92.5355 3.90432C92.8201 3.74198 93.8444 3.55259 93.1046 3.98548C92.9339 3.95843 92.7347 3.93138 92.5355 3.90432ZM93.503 6.25816C93.4461 6.39343 93.1615 6.44755 93.19 6.44755C93.19 6.36638 93.4745 6.28521 93.503 6.25816ZM93.0762 6.96162C92.8201 7.06984 92.7062 7.25922 92.4502 6.9075C92.5355 6.79928 92.564 6.77222 92.7347 6.71811C92.7632 6.77222 92.7916 6.79927 92.8485 6.85339C92.9054 6.88044 92.9908 6.88045 93.0762 6.96162ZM90.8852 6.04171C90.9421 6.01466 91.2266 6.01466 91.2835 6.01466C91.4543 6.01466 91.5965 5.96055 91.4827 6.4205C90.8567 6.4205 90.7998 6.52872 90.8852 6.04171ZM91.5112 5.87939C90.8283 5.90644 90.8852 6.04171 90.9421 5.23004C91.0844 5.06771 91.0559 5.36532 91.5112 5.44648C91.9949 5.55471 92.1372 5.58178 92.251 5.66294C92.1372 5.74411 91.8242 5.82527 91.6535 5.82527C91.5965 5.77116 91.625 5.2571 91.5112 5.87939ZM91.5965 8.15206C91.5965 8.04383 91.5681 8.04384 91.6819 8.07089C91.6534 8.09795 91.6534 8.09795 91.5965 8.15206ZM91.5965 6.69106C91.7957 6.63695 92.0518 6.79928 92.0518 7.01573C91.7103 7.42157 92.0233 7.09689 92.1656 7.09689C92.3363 7.25923 92.4217 7.31334 92.3363 7.36745C91.3689 8.01679 91.5681 8.09796 91.5965 6.69106ZM91.8811 8.36852C91.8811 8.42263 91.8242 8.47674 91.7957 8.36852C91.7957 8.34146 91.8526 8.31441 91.8811 8.36852ZM91.7388 8.20617C91.7673 8.12501 91.9949 7.93562 91.9949 8.07089C92.0233 8.20617 91.8526 8.23323 91.7388 8.20617ZM92.0233 8.44968C92.1372 8.58496 91.9664 8.90962 91.8242 8.61201C91.8811 8.53084 91.938 8.47674 92.0233 8.44968ZM91.9949 7.8274C91.7103 8.0709 91.5965 7.82739 92.5071 7.3945C92.9908 7.47567 92.1656 7.69212 91.9949 7.8274ZM90.373 8.63907C90.4015 9.28841 90.2023 8.82845 89.7754 8.15206C89.8323 7.90856 89.7754 7.69212 89.8608 7.44862C90.373 7.17806 89.7754 7.151 89.9177 6.31227C90.0031 5.71704 89.8893 5.66294 90.0885 5.60883C90.4868 5.90644 90.4868 5.01359 90.7713 5.9876C90.2876 10.2624 90.2876 7.3945 89.9177 7.66506C89.9177 7.80034 89.9746 7.88151 90.373 8.63907ZM90.0031 5.33827C90.06 4.7701 89.9746 4.95948 90.4015 4.77009C90.8567 4.5807 90.7713 4.58071 90.7713 4.98655C90.1738 5.23005 90.1738 5.5006 90.0031 5.33827ZM90.7713 5.66294C90.6575 5.60883 90.8283 5.55471 90.5722 5.41943C90.5437 5.2571 90.9136 5.06772 90.7713 5.66294ZM88.0967 3.25497C88.5804 1.90219 89.0356 1.68574 89.4909 1.36107C89.7754 1.14463 88.6942 2.71386 88.4665 3.25497C88.4096 3.3632 87.9259 3.68787 88.0967 3.25497ZM88.8649 4.0937C88.808 3.95842 88.8649 3.82314 88.8934 3.68786C88.9787 3.85019 88.8934 3.95842 88.8649 4.0937ZM88.4665 4.58071C88.4096 4.47249 88.4666 4.28309 88.5235 4.14781C88.5519 4.25603 88.5804 4.5266 88.4665 4.58071ZM88.4096 5.0136C88.3812 4.79715 88.3812 4.77009 88.495 4.68893C88.495 4.8242 88.495 4.82421 88.4096 5.0136ZM88.2958 4.12076C88.3527 4.22898 88.1251 5.12182 88.0682 4.8242C88.0397 4.63481 88.1535 4.58071 88.0397 4.39132C87.9544 4.22898 88.1251 4.14782 88.2958 4.12076ZM88.7226 5.90643C88.6942 6.28521 88.6657 6.2311 88.4381 6.39343C88.3243 6.79927 88.3527 6.74516 88.2674 6.71811C88.2105 5.2571 87.556 5.23004 88.2104 5.28416C88.182 5.0136 88.1536 5.06771 88.2389 5.0136C88.2958 5.17593 88.2674 5.2571 88.4381 5.36532C88.8934 5.60882 88.7226 5.66293 88.7226 5.90643ZM88.7795 6.09583C88.7795 5.68999 89.0641 5.60882 89.2063 5.71704C89.0925 6.09582 88.6657 6.04172 89.8608 5.66294C89.9177 5.74411 89.8324 6.55577 89.8039 6.66399C88.808 6.12288 88.7795 6.31227 88.7795 6.09583ZM89.4624 10.1001C89.2064 9.85657 88.9218 9.01785 89.2633 9.12607C89.3486 9.2343 89.2917 9.34251 89.2917 9.42368C89.3202 9.61307 89.4909 9.64012 89.5763 9.7754C89.5478 9.82951 89.7185 10.3436 89.4624 10.1001ZM91.7388 10.4518C91.2835 10.3977 91.5681 10.1271 91.2551 10.073C91.0275 10.1271 90.8852 10.4248 90.8567 10.6683C90.686 10.6683 90.5437 10.7224 90.4015 10.56C90.6575 10.3165 90.4868 10.533 90.3445 10.2354C90.2876 10.1001 90.1453 10.0189 90.06 9.74835C89.9462 9.34252 89.6616 9.34252 89.5194 9.26135C89.3202 9.01785 89.4055 9.09901 89.121 8.96373C89.0926 8.85551 89.0641 8.82846 89.1495 8.8014C89.4909 8.63907 89.4624 8.66612 89.4909 8.69317C89.5478 8.63906 89.4055 8.47674 89.3486 8.44968C89.1494 8.23324 88.8934 8.26029 88.8649 8.12501C89.434 7.58389 88.4381 6.44756 89.7185 7.42157C89.7754 7.52979 89.6901 7.96267 89.6616 8.01678C89.4056 7.8815 89.4625 7.8274 89.3771 7.90857C89.5763 7.96268 89.4625 7.90857 89.5763 8.04385C89.747 8.28735 89.6901 8.12501 89.6616 8.39557C89.6332 8.99079 89.6616 8.90963 89.7754 8.39557C89.9177 8.50379 90.06 8.72024 90.2876 9.18019C90.2876 9.26136 90.2876 9.36957 90.2876 9.50484C90.6006 9.09901 91.1413 10.6953 90.4015 9.20724C90.4015 9.18018 90.4015 8.72023 90.5437 8.93668C90.7998 9.28841 90.9136 9.50485 91.1697 9.69424C91.4543 9.91068 90.8283 9.26135 90.5153 8.61201C90.6006 8.39556 90.5722 7.96267 90.7144 8.28734C91.6819 10.533 92.0518 10.1001 91.7388 10.4518ZM93.2469 11.02C93.2753 11.3176 93.0477 11.1282 92.5924 10.8847C91.5965 10.3436 92.0518 10.6412 92.1656 9.58603C92.0802 9.64014 92.0802 9.69423 91.8811 10.046C91.8242 9.80246 91.8526 9.82953 91.8242 9.99186C91.625 10.073 90.0031 7.34039 91.0274 6.58283C91.6819 6.47461 91.5396 6.58283 91.4827 8.26029C91.4827 8.77435 91.2266 7.66507 91.1697 7.96268C91.0843 8.34146 91.5112 8.77435 91.4827 9.20724C91.4542 9.50485 91.5681 9.20724 91.625 9.34252C91.7957 9.69424 91.7673 9.42369 91.8526 9.39663C91.9949 9.42369 92.0518 9.77541 92.1372 9.55896C92.1372 9.61307 92.8485 9.7213 93.3607 9.66719C93.5599 9.77541 93.503 9.9648 93.4461 10.1001C93.2184 10.1271 92.8201 10.1271 92.5924 10.1271C92.1941 10.1271 91.938 10.2083 92.3363 10.2083C93.503 10.2083 93.4176 10.1271 93.3892 10.4518C93.2753 10.4789 93.3607 10.5059 93.0192 10.4247C92.9908 10.3977 92.9908 10.3706 93.0192 10.3436C91.9949 10.4518 93.816 10.6141 93.9013 10.6412C93.9013 10.7494 93.3892 10.7765 93.2469 11.02ZM93.7875 11.2094C93.1615 11.2364 94.9257 10.6953 95.1533 10.7224C95.1818 10.8035 94.2428 11.1823 93.7875 11.2094ZM94.1005 11.3176C94.2713 11.2094 94.1005 11.3446 95.068 10.9388C95.9785 10.533 94.755 11.5611 94.1005 11.3176ZM98.2264 9.34252C98.6817 9.34252 97.2305 10.2895 96.4053 10.4247C96.2631 10.3977 95.9785 10.1001 96.2915 10.4518C96.2346 10.5059 96.3484 10.4518 95.694 10.6953C95.3525 10.8306 95.4094 10.7765 95.4663 10.6412C95.2956 10.4518 93.6168 11.047 93.4461 11.02C93.6168 10.8847 94.4135 10.6141 94.5842 10.6141C95.0964 10.56 96.2061 10.073 95.694 10.2083C95.5801 10.1271 95.5517 9.74836 95.8362 10.073C95.8362 10.2083 95.8078 10.1813 95.9216 10.1271C96.5761 10.56 95.8362 9.93775 95.8078 9.93775C95.4948 9.74836 95.6655 9.4778 95.694 8.9908C95.8078 9.01785 95.7793 9.07196 95.9501 9.39663C96.1492 9.74836 96.3484 9.45074 96.3769 9.39663C96.633 9.4778 96.633 9.66719 96.6899 9.85658C96.8037 9.77542 96.6614 9.72129 96.889 9.55896C96.889 9.45074 96.9175 9.47779 96.8037 9.50484C96.7468 9.45073 96.8606 8.82845 96.8606 8.74729C97.1736 8.74729 96.9744 9.09902 97.0029 9.20724C97.0598 9.20724 97.0598 9.18018 97.1167 8.96373C97.2305 8.88256 97.7711 9.50485 97.9988 9.2884C97.828 9.2884 97.6858 9.20723 97.5435 9.09901C97.828 8.125 97.7996 8.15206 97.9988 8.39557C97.9134 8.5579 97.885 8.50378 98.0841 8.69317C98.3118 8.55789 98.2549 8.77434 98.5394 8.82845C98.6248 8.93667 98.2264 9.20724 98.2264 9.34252ZM98.5679 8.72024C98.2833 8.66613 98.3402 8.47673 98.5679 8.53084C98.6248 8.58496 98.5963 8.63907 98.5679 8.72024ZM98.7101 8.66612C98.6532 8.61201 98.6248 8.50379 98.7101 8.47673C98.7386 8.53084 98.7386 8.58496 98.7101 8.66612ZM98.9947 6.82634C98.9947 6.93456 98.7955 7.42156 98.7386 7.50273C98.6532 8.17912 99.0231 5.23005 98.9947 6.82634ZM96.1208 4.90537C96.0923 4.63481 96.2062 4.68893 96.2062 4.74304C96.2915 4.95949 96.3484 8.31439 96.1208 4.90537ZM90.7713 4.41837C90.7998 4.41837 90.7998 4.41837 90.7713 4.41837V4.41837ZM90.8567 4.39132C90.8283 4.41838 90.8283 4.41837 90.7998 4.41837C90.8283 4.41837 90.8283 4.39132 90.8567 4.39132ZM95.9785 2.1457C95.9785 2.1457 95.9501 2.17275 95.9785 2.1457V2.1457ZM91.1982 4.17488C91.1697 4.17488 91.1697 4.17488 91.1982 4.17488C91.1982 4.14782 91.1982 4.14782 91.1982 4.17488ZM90.999 4.28309C90.999 4.31015 90.999 4.31015 90.999 4.28309C91.0274 4.28309 91.0274 4.28309 90.999 4.28309ZM90.8852 4.39132C90.8567 4.39132 90.8567 4.39132 90.8852 4.39132C90.8852 4.36426 90.8852 4.36426 90.8852 4.39132ZM89.8893 4.93243C89.8608 4.95949 89.8608 4.95949 89.8893 4.93243V4.93243ZM90.8283 9.85658C90.7714 9.80247 90.8852 9.91069 90.9136 9.93775C90.9421 9.9648 90.9136 9.93775 90.8283 9.85658ZM97.9988 9.2884C98.0272 9.2884 98.0272 9.2884 97.9988 9.2884V9.2884ZM93.0762 10.3436C93.0762 10.3165 93.1046 10.3165 93.0762 10.3436V10.3436ZM88.2104 5.28416C88.2104 5.28416 88.2104 5.31121 88.2104 5.28416V5.28416ZM96.2915 8.39557C96.263 8.36851 96.263 8.36851 96.2915 8.39557V8.39557Z" fill="white"/>
<path d="M12.5638 45.6078C12.4499 45.2831 12.393 44.9855 12.08 44.9584C11.8809 44.1197 11.6817 44.3091 11.5679 43.8221C11.3971 43.1728 11.1695 43.3621 10.7711 42.7399C10.572 42.4422 10.4297 42.5234 10.2305 42.1987C10.0313 41.9282 9.71832 41.8741 9.57604 41.82C9.06387 41.6576 9.43377 41.0894 7.61268 41.0894C5.30788 41.0894 5.50706 40.6024 3.05998 41.9011C2.51935 41.5223 2.29173 41.8741 1.69419 42.307C1.26737 42.6316 1.06819 43.0645 0.698286 43.8221C0.47065 44.255 0.584475 45.0937 0.385294 45.256C-0.0130674 45.5807 0.157631 45.8242 0.072268 46.3653C-0.0130952 46.8523 -0.0699971 47.2582 0.186093 47.6099C0.413728 47.0688 0.442196 47.0147 0.413742 47.7722C0.413742 47.8534 0.385287 48.0428 0.27147 48.1239C0.243015 48.0969 0.242994 48.0698 0.21454 48.0157C-0.582183 48.4486 1.09665 50.2884 1.09665 50.3155C1.26738 50.7754 1.29583 50.2343 1.52347 51.2354C1.66574 51.4518 2.12101 51.8576 2.69009 51.9929C2.88927 52.047 3.51526 52.6964 4.31198 52.1011C4.68189 51.8306 5.1087 52.6422 6.16152 52.534C7.0436 53.3457 8.2387 53.0481 8.95006 52.02C9.12079 51.7765 9.57604 51.9388 10.0029 51.8576C11.0557 51.6682 12.4784 50.586 12.3646 49.6661C12.1654 48.0698 13.7304 46.9064 12.5638 45.6078ZM10.2305 42.9292C10.3443 43.0104 10.3728 43.1457 10.4866 43.2539C10.4582 43.281 10.4581 43.308 10.4297 43.308C10.3159 43.2269 10.1167 43.0104 10.2305 42.9292ZM9.97441 43.8221C10.2874 43.9844 10.5435 43.9574 10.7427 43.9844C11.0841 44.3091 11.198 44.6067 11.0841 45.0396C10.9134 45.8513 11.0272 45.7701 10.9134 44.5796C10.885 44.3632 10.7427 44.2009 10.6858 44.8231C10.4297 44.742 10.5435 44.4444 10.4866 44.2009C10.3443 44.0926 10.4297 44.3903 10.3728 44.4444C10.259 44.4173 9.94596 43.8221 9.97441 43.8221ZM10.9703 46.0136C10.9419 45.9595 10.9134 45.9054 10.9703 45.8242C11.0272 45.9054 11.0272 45.9595 10.9703 46.0136ZM10.7996 44.6879C10.8281 44.7961 10.8565 44.9043 10.7996 45.0396C10.7142 44.9043 10.7711 44.7961 10.7996 44.6879ZM10.7996 45.229C10.7427 45.3372 10.7142 45.229 10.7711 45.1749C10.7711 45.2019 10.7711 45.2019 10.7996 45.229ZM10.6289 45.4454C10.572 45.2831 10.4866 44.9314 10.6289 45.0125C10.6858 45.1478 10.6573 45.2831 10.6289 45.4454ZM9.2915 42.334C9.49068 42.1176 9.54759 43.1186 9.43377 42.9834C9.2915 42.794 9.43377 42.8481 9.2915 42.3611C9.2915 42.3611 9.2915 42.3611 9.2915 42.334ZM5.59243 41.82C5.64934 41.82 5.70625 41.847 5.56398 41.847C5.56398 41.82 5.56397 41.82 5.59243 41.82ZM5.4786 41.847C5.22251 42.0093 5.1087 41.8741 5.05179 41.847C5.4786 41.82 5.36479 41.82 5.4786 41.847ZM5.05179 41.6847C5.08024 41.6847 5.79162 41.6576 4.99489 41.7658C4.96644 41.7658 4.93797 41.7117 5.05179 41.6847ZM4.76724 41.9552C4.7957 41.9552 4.7957 41.9823 4.76724 41.9552V41.9552ZM6.50299 41.9552C6.41763 42.0364 5.30789 42.6046 5.27944 42.6316C3.48681 43.2539 5.30788 42.4693 5.4786 42.2528C5.45015 42.0093 4.62498 42.3611 4.45425 42.307V42.334C4.31198 42.2258 6.41763 41.7117 6.50299 41.9552ZM3.99899 44.0656C3.91363 43.9844 3.91363 44.0385 3.99899 43.9033C4.11281 43.9033 4.08437 44.0656 4.22664 43.9303C4.79573 43.3892 4.65345 43.6597 4.22664 44.2009C3.94209 44.0656 4.22662 43.9844 3.99899 44.0656ZM4.16971 42.5505C4.22662 42.7128 4.16971 42.9563 3.88516 43.0104C3.82826 42.794 3.85671 42.5505 4.16971 42.5505ZM4.14126 42.2258C4.22662 42.2528 4.19816 42.2258 4.16971 42.307C4.02744 42.3611 4.0559 42.307 4.14126 42.2258ZM3.94209 43.1727C3.91364 43.2269 3.91363 43.2269 3.85672 43.1998C3.91363 43.1457 3.91364 43.1457 3.94209 43.1727ZM4.05588 43.3351C3.99898 43.5515 4.02743 43.4974 3.91361 43.5515C3.79979 43.4704 3.8567 43.281 4.05588 43.3351ZM4.25509 43.795C4.08436 43.795 4.14125 43.795 4.05588 43.768C4.02743 43.3892 6.10462 42.794 4.25509 43.795ZM4.14126 43.3351C4.19817 43.1186 4.42582 43.0375 4.65345 42.9563C4.79573 43.308 6.10461 42.5234 5.16561 43.1727C4.68189 43.1457 4.08435 43.6056 4.14126 43.3351ZM4.34043 42.2258C4.31197 42.1987 4.31199 42.1717 4.28353 42.1176C4.45426 42.0364 4.65343 42.1446 4.34043 42.2258ZM4.34043 42.5234C4.51115 42.4422 6.01924 41.9823 4.4827 42.7669C4.25506 42.8481 4.25506 42.7398 4.34043 42.5234ZM3.11691 42.6587C3.40145 42.1987 4.62499 41.4682 3.97054 42.1987C3.54373 42.6857 3.71446 42.6857 3.51528 42.5775C3.34455 42.5775 3.00309 42.8481 3.11691 42.6587ZM3.62907 43.6327C3.60061 43.4704 3.57217 43.5245 3.71444 43.4974C3.7429 43.6056 3.77134 43.5786 3.62907 43.6327ZM3.686 43.768C3.60063 43.8221 3.60061 43.8491 3.62907 43.768C3.62907 43.768 3.65754 43.768 3.686 43.768ZM3.686 43.3621C3.65754 43.3621 3.62907 43.3621 3.60062 43.3621C3.60062 43.0645 3.79981 43.1727 3.686 43.3621ZM3.71444 42.9563C3.71444 42.9834 3.71444 42.9834 3.71444 42.9563V42.9563ZM3.54373 43.0375C3.28764 43.0916 3.1169 43.1998 3.60062 42.7128C3.65753 42.794 3.57218 42.9834 3.54373 43.0375ZM2.83237 43.2269C2.91773 42.9563 3.25918 42.794 3.40145 42.7399C3.23073 43.0375 2.77546 43.4163 2.83237 43.2269ZM2.74699 43.5515C2.91771 43.308 3.20226 43.2539 3.45835 43.1186C3.77135 43.5786 2.71855 43.7409 2.94619 43.9303C3.51528 43.768 3.42989 43.768 3.4868 43.8491C2.80389 44.1468 2.57626 44.3361 2.74699 43.5515ZM3.45835 43.6597C3.42989 43.7409 3.37299 43.7409 3.28763 43.7409C3.31608 43.6597 3.40144 43.6056 3.45835 43.6597ZM2.71854 44.3091C2.77545 44.1738 3.40145 43.9574 3.686 43.9574C4.14127 44.3903 4.31199 44.1738 2.86081 44.8773C2.66163 44.9584 2.747 44.9043 2.71854 44.3091ZM2.71854 45.0396C2.71854 45.0125 4.19818 44.1738 3.94209 44.5255C3.6291 44.9584 3.48682 45.1208 3.37301 45.4184C3.45837 45.5807 3.65753 45.4995 3.74289 45.3913C3.60062 45.4184 3.42989 45.4995 3.4868 45.3372C3.5437 45.1749 3.97055 44.3903 4.36891 44.3361C4.45427 44.0656 4.82417 44.0926 5.25099 44.0656C5.10872 43.9574 4.93797 44.0385 4.76724 43.9844C5.4217 43.8762 4.90953 43.9844 4.56808 43.9844C4.62499 43.6327 5.67778 42.9563 6.18996 42.6587C7.18587 42.1176 4.25507 43.2269 5.45016 42.6587C5.62088 42.4152 6.36071 42.2258 6.67371 41.9282C6.81598 41.9011 7.1859 42.0905 7.35662 42.0364C7.21435 41.9011 6.70216 41.82 6.67371 41.7117C6.78753 41.6847 7.4135 41.6847 7.61268 41.7388C7.81186 41.9282 7.89724 41.9552 8.40942 42.2799C8.75087 42.4964 8.60859 42.6316 9.00696 42.9834C9.00696 43.0916 8.95004 43.0645 9.31995 42.9834C9.46222 43.1727 9.83214 44.4985 9.5476 44.1738C8.72242 43.2539 8.06796 41.1436 8.58014 43.3621C8.77932 44.282 8.21023 42.4693 7.89723 42.2799C7.69805 42.2799 8.06798 42.9834 8.2387 43.7139C8.29561 43.768 8.26715 43.8491 8.26715 43.8491C8.40942 44.0115 7.35661 42.3881 7.27125 42.4152C7.27125 42.5775 8.72241 44.4985 7.29969 42.7399C7.12897 42.5505 6.90134 42.0093 7.41352 43.0375C8.21024 44.7149 6.78751 42.0905 5.87697 43.0916C5.96234 43.3351 6.24689 42.6316 7.38507 43.7409C8.01107 44.3361 8.12489 44.4173 8.21025 44.742C8.29562 45.0396 8.43788 45.6348 8.38097 45.9865C8.26716 45.9865 8.0395 44.7149 7.89723 44.3632C7.7265 44.3903 7.78344 44.3632 8.21025 45.9324C8.38098 46.5818 8.35252 47.2582 8.2387 46.9064C8.03952 46.1759 7.84034 44.742 7.52734 44.7149C7.44198 44.769 7.47044 45.1478 7.49889 45.2019C7.64117 45.1208 7.32816 43.6868 8.2387 47.3393C8.35252 47.8263 8.40941 46.8794 8.32404 46.3924C8.63704 46.0407 8.26715 45.0125 8.26715 44.769C8.75087 44.9314 9.43377 47.204 8.01105 42.794C7.86878 42.3881 8.26716 42.821 8.66552 44.3361C8.83624 44.9043 8.80779 44.282 8.80779 44.2279C8.69397 43.4974 8.43789 42.6316 8.63707 42.9834C10.2874 45.8783 9.51916 43.2539 9.63297 43.4433C10.3159 44.6067 10.202 44.1467 10.4581 44.9584C10.5435 45.2019 10.4012 46.1489 10.5435 46.1759C10.6573 46.0677 10.6289 45.229 10.7711 45.256C10.9703 45.256 10.8565 46.0136 10.8565 46.8523C10.9419 46.717 10.9419 46.5547 10.9703 46.1759C10.9988 46.0948 11.0557 46.1489 11.1126 46.1489C11.2549 46.0407 11.3402 45.8513 11.5394 45.7701C11.9093 45.8513 11.5963 46.5277 11.9093 46.8523C12.0516 47.0147 11.6817 48.2863 11.454 48.6921C11.2833 48.5568 11.3687 48.3404 10.3728 46.8794C10.0882 46.4465 10.3159 44.4714 10.0598 44.4714C9.97443 44.6338 10.1167 45.0667 10.1167 45.5266C10.1451 46.7171 10.1736 46.4465 9.83214 46.23C9.80369 45.9865 9.71831 45.0125 9.60449 45.3913C9.60449 45.4184 9.34843 46.8794 9.63297 45.6889C9.68988 45.4725 9.77523 46.0136 9.68987 47.2041C9.83214 47.2852 9.83215 47.2852 9.80369 47.3934C9.71833 47.3664 9.74678 47.3664 9.66142 47.3393C9.57606 47.6369 9.4907 47.5558 9.4907 47.7722C9.4907 48.2592 9.51915 48.151 9.37688 48.3945C8.40943 48.4757 9.03541 48.5298 8.72241 45.6619C8.69396 45.4995 8.72242 45.3913 8.55169 45.4184C8.55169 45.4995 8.60862 45.4725 8.63707 45.5266C8.8078 46.23 8.55171 46.1759 8.63707 46.2842C8.77934 46.5006 8.75086 47.5558 8.75086 48.2322C8.75086 48.3404 8.72241 48.4216 8.60859 48.3945C8.58013 48.3945 8.15334 48.3133 8.09643 48.2592C8.03952 47.9887 8.09644 47.0958 7.92571 46.8794C7.81189 46.9876 7.95415 47.1229 7.9826 47.6099C7.9826 47.7181 7.9257 47.7452 7.95416 47.7722C8.01107 47.9346 8.09641 48.2322 7.89723 48.2051C7.29969 48.1781 7.86879 47.9616 6.84443 48.4216C6.53143 48.2322 5.90544 48.7733 5.25099 48.9897C4.93799 48.7192 5.90543 48.5027 6.55989 48.0428C6.47452 47.9346 6.55987 47.9346 6.04769 48.1781C5.76315 47.8804 6.78751 47.7722 6.87288 47.4746C7.38506 47.1229 7.47043 46.7982 7.66961 46.7982C7.81189 46.2842 7.8688 46.23 7.64117 45.9324C7.52735 45.4184 7.18588 43.9574 7.12897 44.4714C7.24279 44.6067 7.47042 45.4184 7.44196 45.6078C7.07206 45.3643 7.1859 44.3902 6.64526 44.1467C6.5599 44.255 6.6737 44.0926 6.84443 44.4173C6.92979 44.5796 7.18588 45.1478 7.12897 45.256C7.10052 45.256 7.18588 45.3372 6.41761 44.9043C6.3607 44.8773 6.44608 44.8232 6.50299 44.769C7.1859 44.0656 4.90952 44.8231 4.7388 44.9584C4.65343 45.0396 4.56806 44.9584 5.05179 44.5796C5.67778 44.0926 5.64933 43.9574 4.4827 44.8773C4.4827 44.9584 4.48271 45.0125 4.45425 45.1208C2.54781 46.0407 3.37298 45.5536 3.34452 44.742C3.03153 45.1208 3.23072 45.5266 3.00308 45.7701C3.08845 45.8513 3.05999 46.0677 3.03153 46.1759C2.97462 46.3383 2.83237 46.1489 2.80392 46.1218C2.12101 45.9865 2.34863 46.2301 2.71854 45.0396ZM8.18177 44.2279C7.78341 43.9844 7.44196 43.1457 7.58424 43.308C7.81187 43.5786 8.0395 43.8762 8.18177 44.2279ZM11.3687 48.9086C11.2833 49.1791 11.1411 49.3956 11.2264 48.6921C11.3118 48.7462 11.2549 48.6651 11.3687 48.9086ZM10.6289 48.3404C10.6289 48.3133 10.6288 47.6911 10.1736 47.9075C10.0598 47.8263 10.1451 47.7181 9.88904 47.4746C9.88904 46.8523 9.88905 46.7712 9.83214 46.6088C9.57605 45.8513 10.7142 47.5287 11.0841 48.3133C10.5435 49.7743 11.0841 47.9887 10.6289 48.3404ZM10.6004 48.7192C10.5719 48.5298 10.7996 48.2592 10.6858 48.8003C10.6289 48.8003 10.6004 48.7733 10.6004 48.7192ZM10.6573 49.0168C10.4012 50.3155 10.515 50.072 10.1451 49.8285C10.259 49.3414 10.4581 48.5568 10.6573 49.0168ZM10.1167 49.3956C10.1167 49.7202 9.97443 49.7743 9.91752 49.612C9.94597 49.5308 10.0313 49.4767 10.1167 49.3956ZM9.88904 48.8815C9.83213 48.8274 9.88906 48.8274 9.91752 48.7733C9.97443 48.8545 9.94594 48.8815 9.88904 48.8815ZM11.0557 48.6651C11.1126 48.7733 11.0557 49.1791 11.0272 49.2332C10.7996 49.1791 10.9703 48.9086 11.0557 48.6651ZM8.72241 49.585C8.60859 47.8534 9.8606 49.9908 9.26305 49.3956C9.2346 50.1802 9.34841 50.2884 8.72241 49.585ZM9.23461 50.2614C9.12079 50.6401 8.83625 50.0449 8.77934 49.8555C8.86471 49.8555 8.77934 49.7744 9.23461 50.2614ZM9.37688 49.8826C9.63297 49.8555 9.71832 49.8014 9.68987 49.9367C9.63296 50.4507 9.63295 50.3696 9.60449 50.4237C9.3484 50.3155 9.31997 50.1531 9.37688 49.8826ZM9.43377 49.2062C9.20614 48.9627 9.03543 48.8815 9.4907 48.8274C10.0598 48.7462 9.66141 49.4497 9.43377 49.2062ZM8.4948 49.125C8.21025 49.2062 8.3525 49.0168 8.18177 48.9356C8.12486 49.1791 8.49478 49.0709 8.40942 49.8555C8.32406 49.8555 7.92571 49.0709 8.06798 48.8274C8.23871 48.8545 8.35252 48.9086 8.52325 48.9086C8.72243 48.9086 8.69396 49.1791 8.58014 49.3144C8.55169 49.2603 8.52325 49.1791 8.4948 49.125ZM8.55169 49.9096C8.52324 49.7473 8.52324 49.7473 8.55169 49.6391C8.58015 49.7473 8.58015 49.7473 8.55169 49.9096ZM5.82008 49.2062C5.47862 49.3144 5.19409 49.6932 5.22254 49.2873C5.45018 49.1521 6.3038 48.6651 6.55989 48.6651C5.87698 49.2873 6.10462 49.3415 5.82008 49.2062ZM6.16152 50.1802C5.90543 50.2614 5.73471 50.1531 6.10462 50.0178C6.13308 50.072 6.16152 50.1261 6.16152 50.1802ZM5.79163 49.4226C5.76318 49.4497 5.70626 49.4767 5.67781 49.5038C5.67781 49.4497 5.67781 49.4497 5.79163 49.4226ZM5.36481 49.7202C5.36481 49.6391 5.4217 49.612 5.4786 49.612C5.50706 49.6391 5.47863 49.6661 5.36481 49.7202ZM6.41761 49.6661C6.47452 49.585 6.50296 49.4767 6.61678 49.3685C6.78751 50.3425 6.3607 50.2343 6.27534 50.099C6.13307 49.8826 6.27534 49.8826 6.41761 49.6661ZM6.75905 50.6131C6.7306 50.8836 6.58835 50.7213 6.64526 50.6401C6.64526 50.6131 6.67369 50.586 6.75905 50.6131ZM6.7306 49.2603C6.78751 49.2873 6.75907 49.2332 6.84443 49.4497C6.84443 50.8025 6.58833 49.8285 6.7306 49.2603ZM6.75905 50.8566C6.84442 50.6942 6.81597 50.7484 6.87288 50.559C7.64115 50.2884 7.84034 50.2072 7.66961 50.9648C7.04362 51.2083 6.1046 51.0189 6.75905 50.8566ZM7.64117 51.3706C7.49889 51.5871 6.67372 51.5059 6.50299 51.4518C6.41763 51.1001 6.70214 51.1812 6.90132 51.1812C7.66959 51.1542 7.64117 51.0189 7.64117 51.3706ZM7.21435 49.0709C7.04362 49.2332 7.38507 50.4237 6.95825 49.3956C6.73062 48.8274 7.61268 48.5568 7.89723 48.7462C7.92568 48.9086 7.89723 48.638 7.89723 49.7202C7.89723 50.6131 7.27126 49.1791 7.21435 49.0709ZM7.49889 49.9637C7.41353 50.1261 7.21432 50.072 7.32814 49.5579C7.38505 49.7202 7.44199 49.8285 7.49889 49.9637ZM6.90132 49.6932C6.98669 49.7202 7.01517 49.7743 7.07208 50.072C6.8729 50.099 6.90132 50.1531 6.90132 49.6932ZM7.75496 51.1001C7.98259 51.0189 8.09643 51.0189 7.81189 50.9919C7.72652 50.8836 7.84035 50.7754 7.92571 50.6942C8.06798 50.3696 7.78342 50.1531 8.43787 50.7754C8.52323 51.2353 8.38097 51.1542 8.09643 51.2624C7.69807 51.3977 7.75496 51.4247 7.75496 51.1001ZM8.46632 50.6131C8.29559 50.5319 8.21025 50.3966 8.06798 50.3155C8.06798 50.2614 8.06798 50.2343 8.06798 50.1802C7.95416 50.0179 7.9826 50.099 7.9826 49.585C7.9826 49.2603 8.21025 49.9637 8.35253 50.2343C8.4948 50.2613 8.55168 50.2343 8.46632 50.6131ZM5.22254 49.8014C5.19409 49.7743 5.19409 49.7743 5.22254 49.8014V49.8014ZM4.59652 49.585C4.53962 49.5038 4.56807 49.4226 4.59652 49.3415C4.65343 49.4226 4.71034 49.5308 4.59652 49.585ZM4.65345 49.9367C4.65345 49.9637 4.65345 49.9637 4.65345 49.9367V49.9367ZM7.12897 46.1759C7.49888 46.69 6.75905 46.9876 6.18996 47.3123C6.13306 47.3393 6.13308 47.3123 6.07617 47.2582C5.22254 48.1239 5.33633 47.7181 4.62497 47.4746C4.56806 46.9335 4.51116 47.0688 5.45016 46.7441C5.56397 46.7982 5.53553 46.7982 5.56398 46.717C5.6778 46.6088 6.18996 46.5006 5.90542 46.4194C5.19406 46.717 5.56397 46.7441 4.34043 46.1759C4.14125 45.7701 3.94207 46.0948 3.88516 45.8242C3.85671 45.4995 3.71445 45.6348 4.53963 45.256C4.82417 45.4454 6.21843 44.8231 7.12897 46.1759ZM5.53553 44.9043C5.82008 44.742 6.84444 44.5526 6.10462 44.9855C5.9339 44.9584 5.73471 44.9314 5.53553 44.9043ZM6.50299 47.2582C6.44608 47.3934 6.16151 47.4475 6.18996 47.4475C6.18996 47.3664 6.47454 47.2852 6.50299 47.2582ZM6.07617 47.9616C5.82008 48.0698 5.70625 48.2592 5.45016 47.9075C5.53552 47.7993 5.56397 47.7722 5.7347 47.7181C5.76315 47.7722 5.79162 47.7993 5.84853 47.8534C5.90543 47.8804 5.99081 47.8804 6.07617 47.9616ZM3.88516 47.0417C3.94207 47.0147 4.22662 47.0147 4.28353 47.0147C4.45426 47.0147 4.59652 46.9606 4.4827 47.4205C3.8567 47.4205 3.7998 47.5287 3.88516 47.0417ZM4.51118 46.8794C3.82828 46.9064 3.88519 47.0417 3.94209 46.23C4.08437 46.0677 4.05591 46.3653 4.51118 46.4465C4.99491 46.5547 5.13717 46.5818 5.25099 46.6629C5.13717 46.7441 4.82418 46.8253 4.65345 46.8253C4.59655 46.7712 4.625 46.2571 4.51118 46.8794ZM4.59652 49.1521C4.59652 49.0438 4.56808 49.0438 4.6819 49.0709C4.65345 49.0979 4.65343 49.0979 4.59652 49.1521ZM4.59652 47.6911C4.79571 47.6369 5.05179 47.7993 5.05179 48.0157C4.71034 48.4216 5.02334 48.0969 5.16561 48.0969C5.33634 48.2592 5.4217 48.3133 5.33633 48.3675C4.36888 49.0168 4.56807 49.098 4.59652 47.6911ZM4.88107 49.3685C4.88107 49.4226 4.82418 49.4767 4.79573 49.3685C4.79573 49.3415 4.85261 49.3144 4.88107 49.3685ZM4.7388 49.2062C4.76725 49.125 4.99489 48.9356 4.99489 49.0709C5.02335 49.2062 4.85261 49.2332 4.7388 49.2062ZM5.02334 49.4497C5.13716 49.585 4.96645 49.9096 4.82417 49.612C4.88108 49.5308 4.93798 49.4767 5.02334 49.4497ZM4.99489 48.8274C4.71035 49.0709 4.59655 48.8274 5.50709 48.3945C5.99081 48.4757 5.16562 48.6921 4.99489 48.8274ZM3.37301 49.6391C3.40146 50.2884 3.20225 49.8285 2.77544 49.1521C2.83234 48.9086 2.77545 48.6921 2.86081 48.4486C3.37299 48.1781 2.77544 48.151 2.91771 47.3123C3.00307 46.717 2.88928 46.6629 3.08846 46.6088C3.48682 46.9064 3.4868 46.0136 3.77134 46.9876C3.28761 51.2624 3.28761 48.3945 2.91771 48.6651C2.91771 48.8003 2.97464 48.8815 3.37301 49.6391ZM3.00308 46.3383C3.05999 45.7701 2.97464 45.9595 3.40145 45.7701C3.85672 45.5807 3.77134 45.5807 3.77134 45.9865C3.1738 46.2301 3.17381 46.5006 3.00308 46.3383ZM3.77134 46.6629C3.65752 46.6088 3.82826 46.5547 3.57217 46.4194C3.54372 46.2571 3.91361 46.0677 3.77134 46.6629ZM1.09665 44.255C1.58038 42.9022 2.03562 42.6857 2.49089 42.3611C2.77544 42.1446 1.69418 43.7139 1.46654 44.255C1.40963 44.3632 0.925928 44.6879 1.09665 44.255ZM1.86491 45.0937C1.808 44.9584 1.8649 44.8231 1.89336 44.6879C1.97872 44.8502 1.89336 44.9584 1.86491 45.0937ZM1.46654 45.5807C1.40963 45.4725 1.46656 45.2831 1.52347 45.1478C1.55192 45.256 1.58036 45.5266 1.46654 45.5807ZM1.40965 46.0136C1.38119 45.7972 1.38117 45.7701 1.49499 45.6889C1.49499 45.8242 1.49501 45.8242 1.40965 46.0136ZM1.29582 45.1208C1.35273 45.229 1.12508 46.1218 1.06817 45.8242C1.03972 45.6348 1.15354 45.5807 1.03972 45.3913C0.954361 45.229 1.12509 45.1478 1.29582 45.1208ZM1.72264 46.9064C1.69418 47.2852 1.66573 47.2311 1.43809 47.3934C1.32428 47.7993 1.35274 47.7452 1.26737 47.7181C1.21046 46.2571 0.555993 46.23 1.21044 46.2842C1.18199 46.0136 1.15356 46.0677 1.23893 46.0136C1.29583 46.1759 1.26737 46.2571 1.43809 46.3653C1.89336 46.6088 1.72264 46.6629 1.72264 46.9064ZM1.77953 47.0958C1.77953 46.69 2.06408 46.6088 2.20635 46.717C2.09253 47.0958 1.66573 47.0417 2.86081 46.6629C2.91772 46.7441 2.83237 47.5558 2.80392 47.664C1.80801 47.1229 1.77953 47.3123 1.77953 47.0958ZM2.46244 51.1001C2.20635 50.8566 1.92182 50.0179 2.26328 50.1261C2.34864 50.2343 2.29172 50.3425 2.29172 50.4237C2.32018 50.6131 2.49091 50.6401 2.57627 50.7754C2.54781 50.8295 2.71853 51.3436 2.46244 51.1001ZM4.7388 51.4518C4.28353 51.3977 4.56808 51.1271 4.25509 51.073C4.02745 51.1271 3.88517 51.4248 3.85672 51.6683C3.68599 51.6683 3.54373 51.7224 3.40145 51.56C3.65754 51.3165 3.4868 51.533 3.34452 51.2354C3.28762 51.1001 3.14534 51.0189 3.05998 50.7484C2.94616 50.3425 2.66165 50.3425 2.51937 50.2614C2.32019 50.0179 2.40555 50.099 2.12101 49.9637C2.09255 49.8555 2.06409 49.8285 2.14945 49.8014C2.49091 49.6391 2.46244 49.6661 2.49089 49.6932C2.5478 49.6391 2.40553 49.4767 2.34862 49.4497C2.14944 49.2332 1.89336 49.2603 1.86491 49.125C2.434 48.5839 1.43809 47.4476 2.71854 48.4216C2.77545 48.5298 2.6901 48.9627 2.66165 49.0168C2.40556 48.8815 2.46247 48.8274 2.3771 48.9086C2.57628 48.9627 2.46245 48.9086 2.57627 49.0438C2.747 49.2873 2.6901 49.125 2.66165 49.3956C2.63319 49.9908 2.66162 49.9096 2.77544 49.3956C2.91771 49.5038 3.05999 49.7202 3.28763 50.1802C3.28763 50.2614 3.28763 50.3696 3.28763 50.5048C3.60063 50.099 4.14127 51.6953 3.40145 50.2072C3.40145 50.1802 3.40145 49.7202 3.54373 49.9367C3.79981 50.2884 3.91362 50.5048 4.16971 50.6942C4.45425 50.9107 3.82828 50.2613 3.51528 49.612C3.60064 49.3956 3.57217 48.9627 3.71444 49.2873C4.68189 51.533 5.0518 51.1001 4.7388 51.4518ZM6.24689 52.02C6.27535 52.3176 6.0477 52.1282 5.59243 51.8847C4.59652 51.3436 5.0518 51.6412 5.16561 50.586C5.08025 50.6401 5.08025 50.6942 4.88107 51.046C4.82416 50.8025 4.85263 50.8295 4.82417 50.9919C4.62499 51.073 3.00308 48.3404 4.02744 47.5828C4.68189 47.4746 4.53961 47.5828 4.4827 49.2603C4.4827 49.7743 4.22662 48.6651 4.16971 48.9627C4.08434 49.3415 4.51115 49.7743 4.4827 50.2072C4.45425 50.5049 4.56806 50.2072 4.62497 50.3425C4.7957 50.6942 4.76726 50.4237 4.85262 50.3966C4.99489 50.4237 5.0518 50.7754 5.13717 50.559C5.13717 50.6131 5.84854 50.7213 6.36072 50.6672C6.5599 50.7754 6.50297 50.9648 6.44606 51.1001C6.21843 51.1271 5.82006 51.1271 5.59243 51.1271C5.19407 51.1271 4.93797 51.2083 5.33633 51.2083C6.50296 51.2083 6.41762 51.1271 6.38917 51.4518C6.27535 51.4789 6.3607 51.5059 6.01924 51.4247C5.99079 51.3977 5.99079 51.3706 6.01924 51.3436C4.99489 51.4518 6.81596 51.6141 6.90132 51.6412C6.90132 51.7494 6.38917 51.7765 6.24689 52.02ZM6.78753 52.2094C6.16154 52.2364 7.92569 51.6953 8.15332 51.7224C8.18178 51.8035 7.2428 52.1823 6.78753 52.2094ZM7.10053 52.3176C7.27125 52.2094 7.10053 52.3446 8.06798 51.9388C8.97852 51.533 7.75498 52.5611 7.10053 52.3176ZM11.2264 50.3425C11.6817 50.3425 10.2305 51.2895 9.40532 51.4247C9.26305 51.3977 8.9785 51.1001 9.2915 51.4518C9.23459 51.5059 9.34842 51.4518 8.69396 51.6953C8.35251 51.8306 8.40941 51.7765 8.46632 51.6412C8.29559 51.4518 6.61679 52.047 6.44606 52.02C6.61679 51.8847 7.41351 51.6141 7.58424 51.6141C8.09642 51.56 9.20614 51.073 8.69396 51.2083C8.58015 51.1271 8.55169 50.7484 8.83624 51.073C8.83624 51.2083 8.8078 51.1813 8.92161 51.1271C9.57607 51.56 8.83624 50.9377 8.80779 50.9377C8.49479 50.7484 8.66551 50.4778 8.69396 49.9908C8.80778 50.0179 8.77934 50.072 8.95006 50.3966C9.14924 50.7484 9.34842 50.4507 9.37688 50.3966C9.63297 50.4778 9.63296 50.6672 9.68987 50.8566C9.80369 50.7754 9.6614 50.7213 9.88904 50.559C9.88904 50.4507 9.91751 50.4778 9.80369 50.5048C9.74678 50.4507 9.86059 49.8285 9.86059 49.7473C10.1736 49.7473 9.97441 50.099 10.0029 50.2072C10.0598 50.2072 10.0598 50.1802 10.1167 49.9637C10.2305 49.8826 10.7711 50.5048 10.9988 50.2884C10.828 50.2884 10.6858 50.2072 10.5435 50.099C10.828 49.125 10.7996 49.1521 10.9988 49.3956C10.9134 49.5579 10.885 49.5038 11.0841 49.6932C11.3118 49.5579 11.2549 49.7743 11.5394 49.8285C11.6248 49.9367 11.2264 50.2072 11.2264 50.3425ZM11.5679 49.7202C11.2833 49.6661 11.3402 49.4767 11.5679 49.5308C11.6248 49.585 11.5963 49.6391 11.5679 49.7202ZM11.7101 49.6661C11.6532 49.612 11.6248 49.5038 11.7101 49.4767C11.7386 49.5308 11.7386 49.585 11.7101 49.6661ZM11.9947 47.8263C11.9947 47.9346 11.7955 48.4216 11.7386 48.5027C11.6532 49.1791 12.0231 46.23 11.9947 47.8263ZM9.12078 45.9054C9.09233 45.6348 9.20616 45.6889 9.20616 45.743C9.29152 45.9595 9.34842 49.3144 9.12078 45.9054ZM3.77134 45.4184C3.79979 45.4184 3.79979 45.4184 3.77134 45.4184V45.4184ZM3.85672 45.3913C3.82826 45.4184 3.82828 45.4184 3.79982 45.4184C3.82828 45.4184 3.82826 45.3913 3.85672 45.3913ZM8.97851 43.1457C8.97851 43.1457 8.95005 43.1728 8.97851 43.1457V43.1457ZM4.19816 45.1749C4.1697 45.1749 4.1697 45.1749 4.19816 45.1749C4.19816 45.1478 4.19816 45.1478 4.19816 45.1749ZM3.99899 45.2831C3.99899 45.3101 3.99899 45.3101 3.99899 45.2831C4.02744 45.2831 4.02744 45.2831 3.99899 45.2831ZM3.88516 45.3913C3.85671 45.3913 3.85671 45.3913 3.88516 45.3913C3.88516 45.3643 3.88516 45.3643 3.88516 45.3913ZM2.88926 45.9324C2.86081 45.9595 2.86081 45.9595 2.88926 45.9324V45.9324ZM3.82827 50.8566C3.77136 50.8025 3.88516 50.9107 3.91361 50.9377C3.94207 50.9648 3.91363 50.9377 3.82827 50.8566ZM10.9988 50.2884C11.0272 50.2884 11.0272 50.2884 10.9988 50.2884V50.2884ZM6.07617 51.3436C6.07617 51.3165 6.10463 51.3165 6.07617 51.3436V51.3436ZM1.21044 46.2842C1.21044 46.2842 1.21044 46.3112 1.21044 46.2842V46.2842ZM9.2915 49.3956C9.26305 49.3685 9.26305 49.3685 9.2915 49.3956V49.3956Z" fill="white"/>
<path d="M138.43 31.1437C138.281 30.7108 138.206 30.314 137.797 30.2779C137.537 29.1596 137.276 29.4121 137.127 28.7628C136.904 27.897 136.606 28.1495 136.085 27.3198C135.825 26.923 135.639 27.0312 135.378 26.5983C135.118 26.2376 134.709 26.1654 134.523 26.0933C133.853 25.8768 134.336 25.1193 131.955 25.1193C128.941 25.1193 129.202 24.4699 126.002 26.2015C125.295 25.6965 124.997 26.1654 124.215 26.7426C123.657 27.1755 123.397 27.7527 122.913 28.7628C122.615 29.34 122.764 30.4583 122.504 30.6747C121.983 31.1076 122.206 31.4323 122.095 32.1538C121.983 32.8031 121.908 33.3442 122.243 33.8132C122.541 33.0917 122.578 33.0195 122.541 34.0296C122.541 34.1379 122.504 34.3904 122.355 34.4986C122.318 34.4625 122.318 34.4265 122.281 34.3543C121.239 34.9315 123.434 37.3846 123.434 37.4206C123.657 38.0339 123.695 37.3124 123.992 38.6471C124.178 38.9357 124.774 39.4768 125.518 39.6572C125.778 39.7294 126.597 40.5952 127.639 39.8015C128.122 39.4408 128.681 40.523 130.057 40.3787C131.211 41.4609 132.774 41.0641 133.704 39.6933C133.927 39.3686 134.523 39.5851 135.081 39.4768C136.457 39.2243 138.318 37.7814 138.169 36.5548C137.909 34.4264 139.955 32.8753 138.43 31.1437ZM135.378 27.5723C135.527 27.6805 135.564 27.8609 135.713 28.0052C135.676 28.0413 135.676 28.0774 135.639 28.0774C135.49 27.9691 135.23 27.6805 135.378 27.5723ZM135.043 28.7628C135.453 28.9792 135.788 28.9431 136.048 28.9792C136.495 29.4121 136.643 29.8089 136.495 30.3861C136.271 31.4684 136.42 31.3601 136.271 29.7729C136.234 29.4843 136.048 29.2678 135.974 30.0975C135.639 29.9893 135.788 29.5925 135.713 29.2678C135.527 29.1235 135.639 29.5203 135.564 29.5925C135.416 29.5564 135.006 28.7628 135.043 28.7628ZM136.346 31.6848C136.309 31.6126 136.271 31.5405 136.346 31.4323C136.42 31.5405 136.42 31.6126 136.346 31.6848ZM136.123 29.9171C136.16 30.0614 136.197 30.2058 136.123 30.3861C136.011 30.2058 136.085 30.0614 136.123 29.9171ZM136.123 30.6386C136.048 30.7829 136.011 30.6387 136.085 30.5665C136.085 30.6026 136.085 30.6026 136.123 30.6386ZM135.899 30.9272C135.825 30.7108 135.713 30.2418 135.899 30.35C135.974 30.5304 135.937 30.7108 135.899 30.9272ZM134.15 26.7787C134.411 26.4901 134.485 27.8248 134.336 27.6445C134.15 27.3919 134.336 27.4641 134.15 26.8148C134.15 26.8148 134.15 26.8148 134.15 26.7787ZM129.313 26.0933C129.388 26.0933 129.462 26.1293 129.276 26.1293C129.276 26.0933 129.276 26.0933 129.313 26.0933ZM129.164 26.1293C128.829 26.3458 128.681 26.1654 128.606 26.1293C129.164 26.0933 129.015 26.0933 129.164 26.1293ZM128.606 25.9129C128.643 25.9129 129.574 25.8768 128.532 26.0211C128.495 26.0211 128.457 25.949 128.606 25.9129ZM128.234 26.2736C128.271 26.2736 128.271 26.3097 128.234 26.2736V26.2736ZM130.504 26.2736C130.392 26.3819 128.941 27.1394 128.904 27.1755C126.56 28.0052 128.941 26.9591 129.164 26.6705C129.127 26.3458 128.048 26.8148 127.825 26.7426V26.7787C127.639 26.6344 130.392 25.949 130.504 26.2736ZM127.229 29.0874C127.118 28.9792 127.118 29.0514 127.229 28.871C127.378 28.871 127.341 29.0874 127.527 28.9071C128.271 28.1856 128.085 28.5463 127.527 29.2678C127.155 29.0874 127.527 28.9792 127.229 29.0874ZM127.453 27.0673C127.527 27.2837 127.453 27.6084 127.081 27.6806C127.006 27.392 127.043 27.0673 127.453 27.0673ZM127.415 26.6344C127.527 26.6705 127.49 26.6344 127.453 26.7426C127.267 26.8148 127.304 26.7426 127.415 26.6344ZM127.155 27.897C127.118 27.9691 127.118 27.9691 127.043 27.9331C127.118 27.8609 127.118 27.8609 127.155 27.897ZM127.304 28.1134C127.229 28.402 127.267 28.3299 127.118 28.402C126.969 28.2938 127.043 28.0413 127.304 28.1134ZM127.564 28.7267C127.341 28.7267 127.415 28.7267 127.304 28.6906C127.267 28.1856 129.983 27.3919 127.564 28.7267ZM127.415 28.1134C127.49 27.8248 127.788 27.7166 128.085 27.6084C128.271 28.0774 129.983 27.0312 128.755 27.897C128.122 27.8609 127.341 28.4742 127.415 28.1134ZM127.676 26.6344C127.639 26.5983 127.639 26.5622 127.602 26.4901C127.825 26.3819 128.085 26.5262 127.676 26.6344ZM127.676 27.0312C127.899 26.923 129.871 26.3097 127.862 27.3559C127.564 27.4641 127.564 27.3198 127.676 27.0312ZM126.076 27.2116C126.448 26.5983 128.048 25.6243 127.192 26.5983C126.634 27.2477 126.857 27.2477 126.597 27.1034C126.374 27.1034 125.927 27.4641 126.076 27.2116ZM126.746 28.5103C126.708 28.2938 126.671 28.366 126.857 28.3299C126.895 28.4742 126.932 28.4381 126.746 28.5103ZM126.82 28.6906C126.709 28.7628 126.708 28.7989 126.746 28.6906C126.746 28.6906 126.783 28.6906 126.82 28.6906ZM126.82 28.1495C126.783 28.1495 126.746 28.1495 126.709 28.1495C126.709 27.7527 126.969 27.897 126.82 28.1495ZM126.857 27.6084C126.857 27.6445 126.857 27.6445 126.857 27.6084V27.6084ZM126.634 27.7166C126.299 27.7888 126.076 27.9331 126.709 27.2837C126.783 27.3919 126.671 27.6445 126.634 27.7166ZM125.704 27.9691C125.815 27.6084 126.262 27.392 126.448 27.3198C126.225 27.7166 125.629 28.2217 125.704 27.9691ZM125.592 28.402C125.815 28.0774 126.188 28.0052 126.522 27.8248C126.932 28.4381 125.555 28.6546 125.853 28.9071C126.597 28.6906 126.485 28.6906 126.56 28.7989C125.667 29.1957 125.369 29.4482 125.592 28.402ZM126.522 28.5463C126.485 28.6546 126.411 28.6545 126.299 28.6545C126.336 28.5463 126.448 28.4742 126.522 28.5463ZM125.555 29.4121C125.629 29.2317 126.448 28.9432 126.82 28.9432C127.416 29.5203 127.639 29.2317 125.741 30.1697C125.481 30.2779 125.592 30.2058 125.555 29.4121ZM125.555 30.3861C125.555 30.3501 127.49 29.2317 127.155 29.7007C126.746 30.2779 126.56 30.4943 126.411 30.8912C126.522 31.1076 126.783 30.9994 126.895 30.8551C126.709 30.8912 126.485 30.9994 126.56 30.7829C126.634 30.5665 127.192 29.5203 127.713 29.4482C127.825 29.0874 128.309 29.1235 128.867 29.0874C128.681 28.9431 128.457 29.0514 128.234 28.9792C129.09 28.8349 128.42 28.9792 127.974 28.9792C128.048 28.5103 129.425 27.6084 130.095 27.2116C131.397 26.4901 127.564 27.9691 129.127 27.2116C129.35 26.8869 130.318 26.6344 130.727 26.2376C130.913 26.2015 131.397 26.454 131.62 26.3819C131.434 26.2015 130.764 26.0933 130.727 25.949C130.876 25.9129 131.695 25.9129 131.955 25.9851C132.216 26.2376 132.327 26.2737 132.997 26.7065C133.443 26.9951 133.257 27.1755 133.778 27.6445C133.778 27.7888 133.704 27.7527 134.188 27.6445C134.374 27.897 134.857 29.6646 134.485 29.2317C133.406 28.0052 132.55 25.1914 133.22 28.1495C133.481 29.376 132.736 26.9591 132.327 26.7065C132.067 26.7065 132.55 27.6445 132.774 28.6185C132.848 28.6906 132.811 28.7989 132.811 28.7989C132.997 29.0153 131.62 26.8508 131.509 26.8869C131.509 27.1034 133.406 29.6646 131.546 27.3198C131.322 27.0673 131.025 26.3458 131.695 27.7166C132.736 29.9532 130.876 26.454 129.685 27.7888C129.797 28.1134 130.169 27.1755 131.657 28.6545C132.476 29.4482 132.625 29.5564 132.736 29.9893C132.848 30.3861 133.034 31.1798 132.96 31.6487C132.811 31.6487 132.513 29.9532 132.327 29.4843C132.104 29.5203 132.178 29.4843 132.736 31.5766C132.96 32.4424 132.923 33.3442 132.774 32.8752C132.513 31.9012 132.253 29.9893 131.843 29.9532C131.732 30.0254 131.769 30.5304 131.806 30.6026C131.992 30.4943 131.583 28.5824 132.774 33.4524C132.923 34.1018 132.997 32.8392 132.885 32.1898C133.295 31.7209 132.811 30.3501 132.811 30.0254C133.443 30.2418 134.336 33.2721 132.476 27.3919C132.29 26.8508 132.811 27.428 133.332 29.4482C133.555 30.2057 133.518 29.376 133.518 29.3039C133.369 28.3299 133.034 27.1755 133.295 27.6445C135.453 31.5044 134.448 28.0052 134.597 28.2577C135.49 29.8089 135.341 29.1957 135.676 30.2779C135.788 30.6026 135.602 31.8652 135.788 31.9012C135.936 31.7569 135.899 30.6386 136.085 30.6747C136.346 30.6747 136.197 31.6848 136.197 32.8031C136.309 32.6227 136.309 32.4063 136.346 31.9012C136.383 31.793 136.457 31.8652 136.532 31.8652C136.718 31.7209 136.83 31.4683 137.09 31.3601C137.574 31.4683 137.164 32.3702 137.574 32.8031C137.76 33.0195 137.276 34.715 136.978 35.2562C136.755 35.0758 136.867 34.7872 135.564 32.8392C135.192 32.262 135.49 29.6286 135.155 29.6286C135.043 29.845 135.23 30.4222 135.23 31.0355C135.267 32.6227 135.304 32.262 134.857 31.9734C134.82 31.6487 134.709 30.3501 134.56 30.8551C134.56 30.8912 134.225 32.8392 134.597 31.2519C134.671 30.9633 134.783 31.6848 134.671 33.2721C134.857 33.3803 134.857 33.3803 134.82 33.5246C134.709 33.4885 134.746 33.4885 134.634 33.4524C134.523 33.8493 134.411 33.741 134.411 34.0296C134.411 34.679 134.448 34.5347 134.262 34.8593C132.997 34.9676 133.816 35.0397 133.406 31.2158C133.369 30.9994 133.406 30.8551 133.183 30.8912C133.183 30.9994 133.257 30.9633 133.295 31.0355C133.518 31.9734 133.183 31.9012 133.295 32.0455C133.481 32.3341 133.443 33.741 133.443 34.6429C133.443 34.7872 133.406 34.8954 133.257 34.8593C133.22 34.8593 132.662 34.7511 132.588 34.679C132.513 34.3182 132.588 33.1278 132.364 32.8392C132.216 32.9835 132.402 33.1639 132.439 33.8132C132.439 33.9575 132.364 33.9936 132.402 34.0296C132.476 34.2461 132.588 34.6429 132.327 34.6068C131.546 34.5707 132.29 34.2822 130.95 34.8954C130.541 34.6429 129.722 35.3644 128.867 35.653C128.457 35.2922 129.722 35.0036 130.578 34.3904C130.467 34.2461 130.578 34.2461 129.909 34.5707C129.536 34.1739 130.876 34.0296 130.988 33.6328C131.657 33.1639 131.769 32.731 132.029 32.731C132.216 32.0455 132.29 31.9734 131.992 31.5766C131.843 30.8912 131.397 28.9431 131.323 29.6286C131.471 29.8089 131.769 30.8912 131.732 31.1437C131.248 30.819 131.397 29.5203 130.69 29.1957C130.578 29.34 130.727 29.1235 130.95 29.5564C131.062 29.7728 131.397 30.5304 131.323 30.6747C131.285 30.6747 131.397 30.7829 130.392 30.2058C130.318 30.1697 130.429 30.0975 130.504 30.0254C131.397 29.0875 128.42 30.0975 128.197 30.2779C128.085 30.3861 127.974 30.2779 128.606 29.7729C129.425 29.1235 129.388 28.9431 127.862 30.1697C127.862 30.2779 127.862 30.3501 127.825 30.4943C125.332 31.7209 126.411 31.0715 126.374 29.9893C125.964 30.4943 126.225 31.0355 125.927 31.3601C126.039 31.4683 126.002 31.7569 125.964 31.9012C125.89 32.1177 125.704 31.8652 125.667 31.8291C124.774 31.6487 125.071 31.9734 125.555 30.3861ZM132.699 29.3039C132.178 28.9792 131.732 27.8609 131.918 28.0774C132.216 28.4381 132.513 28.8349 132.699 29.3039ZM136.867 35.5448C136.755 35.9055 136.569 36.1941 136.681 35.2562C136.792 35.3283 136.718 35.2201 136.867 35.5448ZM135.899 34.7872C135.899 34.7511 135.899 33.9214 135.304 34.21C135.155 34.1018 135.267 33.9575 134.932 33.6328C134.932 32.8031 134.932 32.6949 134.857 32.4784C134.523 31.4684 136.011 33.705 136.495 34.7511C135.788 36.6991 136.495 34.3182 135.899 34.7872ZM135.862 35.2922C135.825 35.0397 136.123 34.679 135.974 35.4004C135.899 35.4004 135.862 35.3644 135.862 35.2922ZM135.937 35.689C135.602 37.4206 135.75 37.0959 135.267 36.7713C135.416 36.1219 135.676 35.0758 135.937 35.689ZM135.23 36.1941C135.23 36.627 135.043 36.6991 134.969 36.4827C135.006 36.3745 135.118 36.3023 135.23 36.1941ZM134.932 35.5087C134.857 35.4365 134.932 35.4365 134.969 35.3644C135.043 35.4726 135.006 35.5087 134.932 35.5087ZM136.457 35.2201C136.532 35.3644 136.457 35.9055 136.42 35.9777C136.123 35.9055 136.346 35.5447 136.457 35.2201ZM133.406 36.4466C133.257 34.1379 134.895 36.9877 134.113 36.1941C134.076 37.2402 134.225 37.3845 133.406 36.4466ZM134.076 37.3485C133.927 37.8535 133.555 37.0599 133.481 36.8074C133.592 36.8074 133.481 36.6991 134.076 37.3485ZM134.262 36.8434C134.597 36.8073 134.709 36.7352 134.671 36.9156C134.597 37.601 134.597 37.4928 134.56 37.5649C134.225 37.4206 134.188 37.2042 134.262 36.8434ZM134.336 35.9416C134.039 35.6169 133.816 35.5087 134.411 35.4365C135.155 35.3283 134.634 36.2662 134.336 35.9416ZM133.109 35.8333C132.736 35.9416 132.922 35.689 132.699 35.5808C132.625 35.9055 133.109 35.7612 132.997 36.8074C132.885 36.8074 132.364 35.7612 132.55 35.4365C132.774 35.4726 132.923 35.5448 133.146 35.5448C133.406 35.5448 133.369 35.9055 133.22 36.0859C133.183 36.0137 133.146 35.9055 133.109 35.8333ZM133.183 36.8795C133.146 36.6631 133.146 36.6631 133.183 36.5188C133.22 36.6631 133.22 36.6631 133.183 36.8795ZM129.611 35.9416C129.164 36.0859 128.792 36.5909 128.829 36.0498C129.127 35.8694 130.243 35.2201 130.578 35.2201C129.685 36.0498 129.983 36.1219 129.611 35.9416ZM130.057 37.2403C129.722 37.3485 129.499 37.2042 129.983 37.0238C130.02 37.0959 130.057 37.1681 130.057 37.2403ZM129.574 36.2302C129.536 36.2662 129.462 36.3023 129.425 36.3384C129.425 36.2662 129.425 36.2662 129.574 36.2302ZM129.016 36.627C129.016 36.5188 129.09 36.4827 129.164 36.4827C129.202 36.5188 129.164 36.5548 129.016 36.627ZM130.392 36.5548C130.467 36.4466 130.504 36.3023 130.653 36.158C130.876 37.4567 130.318 37.3124 130.206 37.132C130.02 36.8434 130.206 36.8434 130.392 36.5548ZM130.839 37.8174C130.802 38.1782 130.616 37.9617 130.69 37.8535C130.69 37.8174 130.727 37.7814 130.839 37.8174ZM130.802 36.0137C130.876 36.0498 130.839 35.9776 130.95 36.2662C130.95 38.07 130.616 36.7713 130.802 36.0137ZM130.839 38.1421C130.95 37.9257 130.913 37.9978 130.988 37.7453C131.992 37.3845 132.253 37.2763 132.029 38.2864C131.211 38.6111 129.983 38.3586 130.839 38.1421ZM131.992 38.8275C131.806 39.1161 130.727 39.0079 130.504 38.9357C130.392 38.4668 130.764 38.575 131.025 38.575C132.029 38.5389 131.992 38.3585 131.992 38.8275ZM131.434 35.7612C131.211 35.9776 131.657 37.5649 131.099 36.1941C130.802 35.4365 131.955 35.0758 132.327 35.3283C132.364 35.5447 132.327 35.184 132.327 36.627C132.327 37.8174 131.509 35.9055 131.434 35.7612ZM131.806 36.9516C131.695 37.1681 131.434 37.0959 131.583 36.4105C131.657 36.627 131.732 36.7713 131.806 36.9516ZM131.025 36.5909C131.136 36.627 131.174 36.6991 131.248 37.0959C130.988 37.132 131.025 37.2042 131.025 36.5909ZM132.141 38.4668C132.439 38.3585 132.588 38.3586 132.216 38.3225C132.104 38.1782 132.253 38.0339 132.364 37.9257C132.55 37.4928 132.178 37.2042 133.034 38.0339C133.146 38.6471 132.96 38.5389 132.588 38.6832C132.067 38.8636 132.141 38.8997 132.141 38.4668ZM133.071 37.8174C132.848 37.7092 132.736 37.5288 132.55 37.4206C132.55 37.3485 132.55 37.3124 132.55 37.2403C132.402 37.0238 132.439 37.132 132.439 36.4466C132.439 36.0137 132.736 36.9516 132.923 37.3124C133.109 37.3485 133.183 37.3124 133.071 37.8174ZM128.829 36.7352C128.792 36.6991 128.792 36.6991 128.829 36.7352V36.7352ZM128.011 36.4466C127.936 36.3384 127.974 36.2302 128.011 36.1219C128.085 36.2302 128.16 36.3745 128.011 36.4466ZM128.085 36.9156C128.085 36.9516 128.085 36.9516 128.085 36.9156V36.9156ZM131.323 31.9012C131.806 32.5866 130.839 32.9835 130.095 33.4164C130.02 33.4524 130.02 33.4164 129.946 33.3442C128.829 34.4986 128.978 33.9575 128.048 33.6328C127.974 32.9113 127.899 33.0917 129.127 32.6588C129.276 32.731 129.239 32.7309 129.276 32.6227C129.425 32.4784 130.095 32.3341 129.722 32.2259C128.792 32.6227 129.276 32.6588 127.676 31.9012C127.415 31.3601 127.155 31.793 127.081 31.4323C127.043 30.9994 126.857 31.1798 127.936 30.6747C128.309 30.9272 130.132 30.0975 131.323 31.9012ZM129.239 30.2058C129.611 29.9893 130.95 29.7368 129.983 30.314C129.76 30.2779 129.499 30.2418 129.239 30.2058ZM130.504 33.3442C130.429 33.5246 130.057 33.5967 130.095 33.5967C130.095 33.4885 130.467 33.3803 130.504 33.3442ZM129.946 34.2822C129.611 34.4265 129.462 34.679 129.127 34.21C129.239 34.0657 129.276 34.0296 129.499 33.9575C129.536 34.0296 129.574 34.0657 129.648 34.1378C129.722 34.1739 129.834 34.1739 129.946 34.2822ZM127.081 33.0556C127.155 33.0195 127.527 33.0196 127.602 33.0196C127.825 33.0196 128.011 32.9474 127.862 33.5607C127.043 33.5607 126.969 33.705 127.081 33.0556ZM127.899 32.8392C127.006 32.8753 127.081 33.0556 127.155 31.9734C127.341 31.7569 127.304 32.1538 127.899 32.262C128.532 32.4063 128.718 32.4424 128.867 32.5506C128.718 32.6588 128.309 32.767 128.085 32.767C128.011 32.6949 128.048 32.0095 127.899 32.8392ZM128.011 35.8694C128.011 35.7251 127.974 35.7251 128.122 35.7612C128.085 35.7973 128.085 35.7973 128.011 35.8694ZM128.011 33.9214C128.271 33.8493 128.606 34.0657 128.606 34.3543C128.16 34.8954 128.569 34.4625 128.755 34.4625C128.978 34.679 129.09 34.7511 128.978 34.8233C127.713 35.6891 127.974 35.7973 128.011 33.9214ZM128.383 36.158C128.383 36.2302 128.309 36.3023 128.271 36.158C128.271 36.1219 128.346 36.0859 128.383 36.158ZM128.197 35.9416C128.234 35.8333 128.532 35.5808 128.532 35.7612C128.569 35.9416 128.346 35.9776 128.197 35.9416ZM128.569 36.2662C128.718 36.4466 128.495 36.8795 128.309 36.4827C128.383 36.3745 128.457 36.3023 128.569 36.2662ZM128.532 35.4365C128.16 35.7612 128.011 35.4365 129.202 34.8593C129.834 34.9676 128.755 35.2562 128.532 35.4365ZM126.411 36.5188C126.448 37.3846 126.188 36.7713 125.629 35.8694C125.704 35.5447 125.629 35.2562 125.741 34.9315C126.411 34.5707 125.629 34.5347 125.815 33.4164C125.927 32.6227 125.778 32.5506 126.039 32.4784C126.56 32.8753 126.56 31.6848 126.932 32.9835C126.299 38.6832 126.299 34.8593 125.815 35.2201C125.815 35.4004 125.89 35.5087 126.411 36.5188ZM125.927 32.1177C126.002 31.3601 125.89 31.6126 126.448 31.3601C127.043 31.1076 126.932 31.1076 126.932 31.6487C126.15 31.9734 126.15 32.3341 125.927 32.1177ZM126.932 32.5506C126.783 32.4784 127.006 32.4063 126.671 32.2259C126.634 32.0095 127.118 31.757 126.932 32.5506ZM123.434 29.34C124.067 27.5363 124.662 27.2477 125.257 26.8148C125.629 26.5262 124.215 28.6185 123.918 29.34C123.843 29.4843 123.211 29.9172 123.434 29.34ZM124.439 30.4583C124.364 30.2779 124.439 30.0975 124.476 29.9171C124.588 30.1336 124.476 30.2779 124.439 30.4583ZM123.918 31.1076C123.843 30.9633 123.918 30.7108 123.992 30.5304C124.029 30.6747 124.067 31.0355 123.918 31.1076ZM123.843 31.6848C123.806 31.3962 123.806 31.3601 123.955 31.2519C123.955 31.4323 123.955 31.4323 123.843 31.6848ZM123.695 30.4943C123.769 30.6386 123.471 31.8291 123.397 31.4323C123.36 31.1798 123.508 31.1076 123.36 30.8551C123.248 30.6386 123.471 30.5304 123.695 30.4943ZM124.253 32.8752C124.215 33.3803 124.178 33.3081 123.881 33.5246C123.732 34.0657 123.769 33.9936 123.657 33.9575C123.583 32.0095 122.727 31.9734 123.583 32.0455C123.546 31.6848 123.509 31.7569 123.62 31.6848C123.695 31.9012 123.657 32.0095 123.881 32.1538C124.476 32.4784 124.253 32.5506 124.253 32.8752ZM124.327 33.1278C124.327 32.5867 124.699 32.4784 124.885 32.6227C124.736 33.1278 124.178 33.0556 125.741 32.5506C125.815 32.6588 125.704 33.741 125.667 33.8853C124.364 33.1638 124.327 33.4164 124.327 33.1278ZM125.22 38.4668C124.885 38.1421 124.513 37.0238 124.96 37.1681C125.071 37.3124 124.997 37.4567 124.997 37.5649C125.034 37.8174 125.257 37.8535 125.369 38.0339C125.332 38.106 125.555 38.7914 125.22 38.4668ZM128.197 38.9357C127.602 38.8636 127.974 38.5028 127.564 38.4307C127.267 38.5028 127.081 38.8997 127.043 39.2243C126.82 39.2243 126.634 39.2965 126.448 39.08C126.783 38.7554 126.56 39.044 126.374 38.6471C126.299 38.4668 126.113 38.3585 126.002 37.9978C125.853 37.4567 125.481 37.4567 125.295 37.3485C125.034 37.0238 125.146 37.132 124.774 36.9516C124.736 36.8073 124.699 36.7713 124.811 36.7352C125.257 36.5188 125.22 36.5548 125.257 36.5909C125.332 36.5187 125.146 36.3023 125.071 36.2662C124.811 35.9776 124.476 36.0137 124.439 35.8333C125.183 35.1119 123.881 33.5967 125.555 34.8954C125.629 35.0397 125.518 35.6169 125.481 35.689C125.146 35.5087 125.22 35.4365 125.109 35.5448C125.369 35.6169 125.22 35.5448 125.369 35.7251C125.592 36.0498 125.518 35.8333 125.481 36.1941C125.443 36.9877 125.481 36.8795 125.629 36.1941C125.815 36.3384 126.002 36.627 126.299 37.2403C126.299 37.3485 126.299 37.4928 126.299 37.6731C126.709 37.132 127.416 39.2604 126.448 37.2763C126.448 37.2402 126.448 36.627 126.634 36.9156C126.969 37.3845 127.118 37.6731 127.453 37.9257C127.825 38.2142 127.006 37.3485 126.597 36.4827C126.709 36.1941 126.671 35.6169 126.857 36.0498C128.122 39.044 128.606 38.4668 128.197 38.9357ZM130.169 39.6933C130.206 40.0901 129.909 39.8376 129.313 39.5129C128.011 38.7914 128.606 39.1883 128.755 37.7814C128.643 37.8535 128.643 37.9256 128.383 38.3946C128.309 38.0699 128.346 38.106 128.309 38.3225C128.048 38.4307 125.927 34.7872 127.267 33.7771C128.122 33.6328 127.936 33.7771 127.862 36.0137C127.862 36.6991 127.527 35.2201 127.453 35.6169C127.341 36.1219 127.899 36.6991 127.862 37.2763C127.825 37.6731 127.974 37.2763 128.048 37.4567C128.271 37.9257 128.234 37.5649 128.346 37.5288C128.532 37.5649 128.606 38.0339 128.718 37.7453C128.718 37.8174 129.648 37.9617 130.318 37.8896C130.578 38.0339 130.504 38.2864 130.429 38.4668C130.132 38.5028 129.611 38.5029 129.313 38.5029C128.792 38.5029 128.457 38.6111 128.978 38.6111C130.504 38.6111 130.392 38.5028 130.355 38.9357C130.206 38.9718 130.318 39.0079 129.871 38.8997C129.834 38.8636 129.834 38.8275 129.871 38.7914C128.532 38.9357 130.913 39.1522 131.025 39.1883C131.025 39.3326 130.355 39.3686 130.169 39.6933ZM130.876 39.9458C130.057 39.9819 132.364 39.2604 132.662 39.2965C132.699 39.4047 131.471 39.9098 130.876 39.9458ZM131.285 40.0901C131.509 39.9458 131.285 40.1262 132.55 39.5851C133.741 39.044 132.141 40.4148 131.285 40.0901ZM136.681 37.4567C137.276 37.4567 135.378 38.7193 134.299 38.8997C134.113 38.8636 133.741 38.4668 134.15 38.9357C134.076 39.0079 134.225 38.9357 133.369 39.2604C132.923 39.4408 132.997 39.3686 133.071 39.1883C132.848 38.9357 130.653 39.7294 130.429 39.6933C130.653 39.5129 131.695 39.1522 131.918 39.1522C132.588 39.08 134.039 38.4307 133.369 38.6111C133.22 38.5028 133.183 37.9978 133.555 38.4307C133.555 38.6111 133.518 38.575 133.667 38.5029C134.523 39.08 133.555 38.2503 133.518 38.2503C133.109 37.9978 133.332 37.6371 133.369 36.9877C133.518 37.0238 133.481 37.096 133.704 37.5288C133.964 37.9978 134.225 37.601 134.262 37.5288C134.597 37.6371 134.597 37.8896 134.671 38.1421C134.82 38.0339 134.634 37.9617 134.932 37.7453C134.932 37.601 134.969 37.6371 134.82 37.6731C134.746 37.601 134.895 36.7713 134.895 36.6631C135.304 36.6631 135.043 37.132 135.081 37.2763C135.155 37.2763 135.155 37.2402 135.23 36.9516C135.378 36.8434 136.085 37.6731 136.383 37.3845C136.16 37.3845 135.974 37.2763 135.788 37.132C136.16 35.8333 136.123 35.8694 136.383 36.1941C136.271 36.4105 136.234 36.3384 136.495 36.5909C136.792 36.4105 136.718 36.6991 137.09 36.7713C137.202 36.9156 136.681 37.2763 136.681 37.4567ZM137.127 36.627C136.755 36.5548 136.83 36.3023 137.127 36.3745C137.202 36.4466 137.164 36.5188 137.127 36.627ZM137.313 36.5548C137.239 36.4827 137.202 36.3384 137.313 36.3023C137.35 36.3745 137.35 36.4466 137.313 36.5548ZM137.685 34.1018C137.685 34.2461 137.425 34.8954 137.35 35.0036C137.239 35.9055 137.723 31.9734 137.685 34.1018ZM133.927 31.5405C133.89 31.1797 134.039 31.2519 134.039 31.3241C134.15 31.6126 134.225 36.0859 133.927 31.5405ZM126.932 30.8912C126.969 30.8912 126.969 30.8912 126.932 30.8912V30.8912ZM127.043 30.8551C127.006 30.8912 127.006 30.8912 126.969 30.8912C127.006 30.8912 127.006 30.8551 127.043 30.8551ZM133.741 27.8609C133.741 27.8609 133.704 27.897 133.741 27.8609V27.8609ZM127.49 30.5665C127.453 30.5665 127.453 30.5665 127.49 30.5665C127.49 30.5304 127.49 30.5304 127.49 30.5665ZM127.229 30.7108C127.229 30.7469 127.229 30.7469 127.229 30.7108C127.267 30.7108 127.267 30.7108 127.229 30.7108ZM127.081 30.8551C127.043 30.8551 127.043 30.8551 127.081 30.8551C127.081 30.819 127.081 30.819 127.081 30.8551ZM125.778 31.5766C125.741 31.6127 125.741 31.6127 125.778 31.5766V31.5766ZM127.006 38.1421C126.932 38.07 127.081 38.2143 127.118 38.2503C127.155 38.2864 127.118 38.2503 127.006 38.1421ZM136.383 37.3845C136.42 37.3845 136.42 37.3845 136.383 37.3845V37.3845ZM129.946 38.7914C129.946 38.7554 129.983 38.7554 129.946 38.7914V38.7914ZM123.583 32.0455C123.583 32.0455 123.583 32.0816 123.583 32.0455V32.0455ZM134.15 36.1941C134.113 36.158 134.113 36.158 134.15 36.1941V36.1941Z" fill="white"/>
</svg>
